<mxfile host="app.diagrams.net" modified="2024-01-24T06:30:12.632Z" agent="Mozilla/5.0 (Windows NT 10.0; Win64; x64) AppleWebKit/537.36 (KHTML, like Gecko) Chrome/120.0.0.0 Safari/537.36 Edg/120.0.0.0" etag="yD9hz5I-82vwdBIRTKrv" version="23.0.0" type="device">
  <diagram name="Page-1" id="RO39AySNclmfdX33A3-T">
    <mxGraphModel dx="437" dy="2741" grid="1" gridSize="10" guides="1" tooltips="1" connect="1" arrows="1" fold="1" page="1" pageScale="1" pageWidth="827" pageHeight="1169" math="0" shadow="0">
      <root>
        <mxCell id="0" />
        <mxCell id="1" parent="0" />
        <mxCell id="hXMPYN5qLVU3_iHfUdJ2-1" value="Arrived at Cebu" style="rounded=1;whiteSpace=wrap;html=1;" vertex="1" parent="1">
          <mxGeometry x="290" y="-1900" width="120" height="60" as="geometry" />
        </mxCell>
        <mxCell id="hXMPYN5qLVU3_iHfUdJ2-2" value="" style="endArrow=none;html=1;rounded=0;entryX=0.5;entryY=1;entryDx=0;entryDy=0;" edge="1" parent="1" target="hXMPYN5qLVU3_iHfUdJ2-1">
          <mxGeometry width="50" height="50" relative="1" as="geometry">
            <mxPoint x="350" y="-1800" as="sourcePoint" />
            <mxPoint x="370" y="-1690" as="targetPoint" />
            <Array as="points">
              <mxPoint x="350" y="-1800" />
            </Array>
          </mxGeometry>
        </mxCell>
        <mxCell id="hXMPYN5qLVU3_iHfUdJ2-3" value="Check time" style="shape=parallelogram;perimeter=parallelogramPerimeter;whiteSpace=wrap;html=1;fixedSize=1;" vertex="1" parent="1">
          <mxGeometry x="290" y="-1800" width="120" height="60" as="geometry" />
        </mxCell>
        <mxCell id="hXMPYN5qLVU3_iHfUdJ2-5" value="" style="endArrow=none;html=1;rounded=0;entryX=0.5;entryY=1;entryDx=0;entryDy=0;" edge="1" parent="1">
          <mxGeometry width="50" height="50" relative="1" as="geometry">
            <mxPoint x="349.5" y="-1700" as="sourcePoint" />
            <mxPoint x="349.5" y="-1740" as="targetPoint" />
            <Array as="points">
              <mxPoint x="349.5" y="-1700" />
            </Array>
          </mxGeometry>
        </mxCell>
        <mxCell id="hXMPYN5qLVU3_iHfUdJ2-9" style="edgeStyle=orthogonalEdgeStyle;rounded=0;orthogonalLoop=1;jettySize=auto;html=1;" edge="1" parent="1" source="hXMPYN5qLVU3_iHfUdJ2-8">
          <mxGeometry relative="1" as="geometry">
            <mxPoint x="350" y="-1720" as="targetPoint" />
          </mxGeometry>
        </mxCell>
        <mxCell id="hXMPYN5qLVU3_iHfUdJ2-8" value="&lt;font style=&quot;font-size: 10px;&quot;&gt;Is it already 8pm&lt;/font&gt;" style="rhombus;whiteSpace=wrap;html=1;" vertex="1" parent="1">
          <mxGeometry x="310" y="-1700" width="80" height="80" as="geometry" />
        </mxCell>
        <mxCell id="hXMPYN5qLVU3_iHfUdJ2-10" value="" style="endArrow=none;html=1;rounded=0;" edge="1" parent="1">
          <mxGeometry width="50" height="50" relative="1" as="geometry">
            <mxPoint x="390" y="-1660" as="sourcePoint" />
            <mxPoint x="440" y="-1660" as="targetPoint" />
            <Array as="points">
              <mxPoint x="390" y="-1660" />
            </Array>
          </mxGeometry>
        </mxCell>
        <mxCell id="hXMPYN5qLVU3_iHfUdJ2-12" value="" style="endArrow=none;html=1;rounded=0;" edge="1" parent="1">
          <mxGeometry width="50" height="50" relative="1" as="geometry">
            <mxPoint x="260" y="-1660.5" as="sourcePoint" />
            <mxPoint x="310" y="-1660.5" as="targetPoint" />
            <Array as="points" />
          </mxGeometry>
        </mxCell>
        <mxCell id="hXMPYN5qLVU3_iHfUdJ2-13" value="&lt;font color=&quot;#ff0000&quot;&gt;No&lt;/font&gt;" style="text;html=1;strokeColor=none;fillColor=none;align=center;verticalAlign=middle;whiteSpace=wrap;rounded=0;" vertex="1" parent="1">
          <mxGeometry x="260" y="-1700" width="60" height="30" as="geometry" />
        </mxCell>
        <mxCell id="hXMPYN5qLVU3_iHfUdJ2-14" value="&lt;font color=&quot;#009900&quot;&gt;Yes&lt;/font&gt;" style="text;html=1;strokeColor=none;fillColor=none;align=center;verticalAlign=middle;whiteSpace=wrap;rounded=0;" vertex="1" parent="1">
          <mxGeometry x="380" y="-1690" width="60" height="30" as="geometry" />
        </mxCell>
        <mxCell id="hXMPYN5qLVU3_iHfUdJ2-15" value="" style="endArrow=none;html=1;rounded=0;" edge="1" parent="1">
          <mxGeometry width="50" height="50" relative="1" as="geometry">
            <mxPoint x="260" y="-1620" as="sourcePoint" />
            <mxPoint x="260" y="-1660" as="targetPoint" />
          </mxGeometry>
        </mxCell>
        <mxCell id="hXMPYN5qLVU3_iHfUdJ2-16" value="" style="endArrow=none;html=1;rounded=0;" edge="1" parent="1">
          <mxGeometry width="50" height="50" relative="1" as="geometry">
            <mxPoint x="440" y="-1620" as="sourcePoint" />
            <mxPoint x="440" y="-1660" as="targetPoint" />
          </mxGeometry>
        </mxCell>
        <mxCell id="hXMPYN5qLVU3_iHfUdJ2-25" value="" style="edgeStyle=orthogonalEdgeStyle;rounded=0;orthogonalLoop=1;jettySize=auto;html=1;" edge="1" parent="1" source="hXMPYN5qLVU3_iHfUdJ2-19" target="hXMPYN5qLVU3_iHfUdJ2-24">
          <mxGeometry relative="1" as="geometry" />
        </mxCell>
        <mxCell id="hXMPYN5qLVU3_iHfUdJ2-19" value="Eat&amp;nbsp;" style="rounded=0;whiteSpace=wrap;html=1;" vertex="1" parent="1">
          <mxGeometry x="200" y="-1620" width="110" height="40" as="geometry" />
        </mxCell>
        <mxCell id="hXMPYN5qLVU3_iHfUdJ2-20" value="Go to hotel" style="rounded=0;whiteSpace=wrap;html=1;" vertex="1" parent="1">
          <mxGeometry x="390" y="-1620" width="110" height="40" as="geometry" />
        </mxCell>
        <mxCell id="hXMPYN5qLVU3_iHfUdJ2-21" value="" style="endArrow=none;html=1;rounded=0;" edge="1" parent="1">
          <mxGeometry width="50" height="50" relative="1" as="geometry">
            <mxPoint x="440" y="-1450" as="sourcePoint" />
            <mxPoint x="440" y="-1580" as="targetPoint" />
          </mxGeometry>
        </mxCell>
        <mxCell id="hXMPYN5qLVU3_iHfUdJ2-22" value="Sleep" style="rounded=0;whiteSpace=wrap;html=1;" vertex="1" parent="1">
          <mxGeometry x="390" y="-1460" width="110" height="40" as="geometry" />
        </mxCell>
        <mxCell id="hXMPYN5qLVU3_iHfUdJ2-23" value="" style="endArrow=none;html=1;rounded=0;" edge="1" parent="1">
          <mxGeometry width="50" height="50" relative="1" as="geometry">
            <mxPoint x="254.5" y="-1540" as="sourcePoint" />
            <mxPoint x="254.5" y="-1580" as="targetPoint" />
          </mxGeometry>
        </mxCell>
        <mxCell id="hXMPYN5qLVU3_iHfUdJ2-24" value="Go to hotel" style="rounded=0;whiteSpace=wrap;html=1;" vertex="1" parent="1">
          <mxGeometry x="200" y="-1540" width="110" height="40" as="geometry" />
        </mxCell>
        <mxCell id="hXMPYN5qLVU3_iHfUdJ2-27" value="" style="endArrow=none;html=1;rounded=0;" edge="1" parent="1">
          <mxGeometry width="50" height="50" relative="1" as="geometry">
            <mxPoint x="254.5" y="-1460" as="sourcePoint" />
            <mxPoint x="254.5" y="-1500" as="targetPoint" />
          </mxGeometry>
        </mxCell>
        <mxCell id="hXMPYN5qLVU3_iHfUdJ2-29" value="Sleep" style="rounded=0;whiteSpace=wrap;html=1;" vertex="1" parent="1">
          <mxGeometry x="200" y="-1460" width="110" height="40" as="geometry" />
        </mxCell>
        <mxCell id="hXMPYN5qLVU3_iHfUdJ2-30" value="" style="endArrow=none;html=1;rounded=0;" edge="1" parent="1">
          <mxGeometry width="50" height="50" relative="1" as="geometry">
            <mxPoint x="300" y="-1340" as="sourcePoint" />
            <mxPoint x="254.5" y="-1420" as="targetPoint" />
            <Array as="points">
              <mxPoint x="255" y="-1340" />
            </Array>
          </mxGeometry>
        </mxCell>
        <mxCell id="hXMPYN5qLVU3_iHfUdJ2-33" value="" style="endArrow=none;html=1;rounded=0;entryX=0.5;entryY=1;entryDx=0;entryDy=0;" edge="1" parent="1" target="hXMPYN5qLVU3_iHfUdJ2-22">
          <mxGeometry width="50" height="50" relative="1" as="geometry">
            <mxPoint x="390" y="-1340" as="sourcePoint" />
            <mxPoint x="360" y="-1490" as="targetPoint" />
            <Array as="points">
              <mxPoint x="445" y="-1340" />
            </Array>
          </mxGeometry>
        </mxCell>
        <mxCell id="hXMPYN5qLVU3_iHfUdJ2-36" value="" style="endArrow=none;html=1;rounded=0;entryX=0.445;entryY=1.1;entryDx=0;entryDy=0;entryPerimeter=0;" edge="1" parent="1">
          <mxGeometry width="50" height="50" relative="1" as="geometry">
            <mxPoint x="354.55" y="-1264" as="sourcePoint" />
            <mxPoint x="354.50000000000006" y="-1320" as="targetPoint" />
          </mxGeometry>
        </mxCell>
        <mxCell id="hXMPYN5qLVU3_iHfUdJ2-37" value="Eat breakfast" style="rounded=0;whiteSpace=wrap;html=1;" vertex="1" parent="1">
          <mxGeometry x="300" y="-1280" width="110" height="40" as="geometry" />
        </mxCell>
        <mxCell id="hXMPYN5qLVU3_iHfUdJ2-40" value="" style="endArrow=none;html=1;rounded=0;entryX=0.445;entryY=1.1;entryDx=0;entryDy=0;entryPerimeter=0;" edge="1" parent="1">
          <mxGeometry width="50" height="50" relative="1" as="geometry">
            <mxPoint x="354.5" y="-1190" as="sourcePoint" />
            <mxPoint x="354.50000000000006" y="-1240" as="targetPoint" />
          </mxGeometry>
        </mxCell>
        <mxCell id="hXMPYN5qLVU3_iHfUdJ2-42" value="Go to Taoist Temple" style="rounded=0;whiteSpace=wrap;html=1;" vertex="1" parent="1">
          <mxGeometry x="300" y="-1190" width="110" height="40" as="geometry" />
        </mxCell>
        <mxCell id="hXMPYN5qLVU3_iHfUdJ2-43" value="" style="endArrow=none;html=1;rounded=0;entryX=0.445;entryY=1.1;entryDx=0;entryDy=0;entryPerimeter=0;" edge="1" parent="1">
          <mxGeometry width="50" height="50" relative="1" as="geometry">
            <mxPoint x="354.5" y="-1100" as="sourcePoint" />
            <mxPoint x="354.50000000000006" y="-1150" as="targetPoint" />
          </mxGeometry>
        </mxCell>
        <mxCell id="hXMPYN5qLVU3_iHfUdJ2-45" value="&lt;font style=&quot;font-size: 10px;&quot;&gt;Am I hungry?&lt;/font&gt;" style="rhombus;whiteSpace=wrap;html=1;" vertex="1" parent="1">
          <mxGeometry x="315" y="-1100" width="80" height="80" as="geometry" />
        </mxCell>
        <mxCell id="hXMPYN5qLVU3_iHfUdJ2-47" value="&lt;font color=&quot;#ff0000&quot;&gt;No&lt;/font&gt;" style="text;html=1;strokeColor=none;fillColor=none;align=center;verticalAlign=middle;whiteSpace=wrap;rounded=0;" vertex="1" parent="1">
          <mxGeometry x="260" y="-1090" width="60" height="30" as="geometry" />
        </mxCell>
        <mxCell id="hXMPYN5qLVU3_iHfUdJ2-48" value="&lt;font color=&quot;#009900&quot;&gt;Yes&lt;/font&gt;" style="text;html=1;strokeColor=none;fillColor=none;align=center;verticalAlign=middle;whiteSpace=wrap;rounded=0;" vertex="1" parent="1">
          <mxGeometry x="410" y="-1100" width="60" height="30" as="geometry" />
        </mxCell>
        <mxCell id="hXMPYN5qLVU3_iHfUdJ2-49" value="" style="endArrow=none;html=1;rounded=0;entryX=0;entryY=0.5;entryDx=0;entryDy=0;" edge="1" parent="1" target="hXMPYN5qLVU3_iHfUdJ2-45">
          <mxGeometry width="50" height="50" relative="1" as="geometry">
            <mxPoint x="260" y="-1060" as="sourcePoint" />
            <mxPoint x="310" y="-1350" as="targetPoint" />
          </mxGeometry>
        </mxCell>
        <mxCell id="hXMPYN5qLVU3_iHfUdJ2-53" value="Continue to next destination" style="rounded=0;whiteSpace=wrap;html=1;" vertex="1" parent="1">
          <mxGeometry x="205" y="-1000" width="110" height="40" as="geometry" />
        </mxCell>
        <mxCell id="hXMPYN5qLVU3_iHfUdJ2-60" value="" style="endArrow=none;html=1;rounded=0;exitX=0;exitY=1;exitDx=0;exitDy=0;" edge="1" parent="1" source="hXMPYN5qLVU3_iHfUdJ2-47">
          <mxGeometry width="50" height="50" relative="1" as="geometry">
            <mxPoint x="210" y="-1120" as="sourcePoint" />
            <mxPoint x="260" y="-1000" as="targetPoint" />
          </mxGeometry>
        </mxCell>
        <mxCell id="hXMPYN5qLVU3_iHfUdJ2-61" value="" style="endArrow=none;html=1;rounded=0;entryX=1;entryY=0.5;entryDx=0;entryDy=0;" edge="1" parent="1" target="hXMPYN5qLVU3_iHfUdJ2-45">
          <mxGeometry width="50" height="50" relative="1" as="geometry">
            <mxPoint x="460" y="-1060" as="sourcePoint" />
            <mxPoint x="330" y="-1060" as="targetPoint" />
          </mxGeometry>
        </mxCell>
        <mxCell id="hXMPYN5qLVU3_iHfUdJ2-63" value="" style="endArrow=none;html=1;rounded=0;exitX=0;exitY=1;exitDx=0;exitDy=0;" edge="1" parent="1">
          <mxGeometry width="50" height="50" relative="1" as="geometry">
            <mxPoint x="460" y="-1060" as="sourcePoint" />
            <mxPoint x="460" y="-1000" as="targetPoint" />
          </mxGeometry>
        </mxCell>
        <mxCell id="hXMPYN5qLVU3_iHfUdJ2-64" value="Eat" style="rounded=0;whiteSpace=wrap;html=1;" vertex="1" parent="1">
          <mxGeometry x="410" y="-1000" width="110" height="40" as="geometry" />
        </mxCell>
        <mxCell id="hXMPYN5qLVU3_iHfUdJ2-66" value="" style="endArrow=none;html=1;rounded=0;exitX=0;exitY=1;exitDx=0;exitDy=0;" edge="1" parent="1">
          <mxGeometry width="50" height="50" relative="1" as="geometry">
            <mxPoint x="460" y="-960" as="sourcePoint" />
            <mxPoint x="460" y="-900" as="targetPoint" />
          </mxGeometry>
        </mxCell>
        <mxCell id="hXMPYN5qLVU3_iHfUdJ2-67" value="" style="endArrow=none;html=1;rounded=0;exitX=0;exitY=1;exitDx=0;exitDy=0;" edge="1" parent="1">
          <mxGeometry width="50" height="50" relative="1" as="geometry">
            <mxPoint x="258.75" y="-960" as="sourcePoint" />
            <mxPoint x="258.75" y="-900" as="targetPoint" />
          </mxGeometry>
        </mxCell>
        <mxCell id="hXMPYN5qLVU3_iHfUdJ2-68" value="" style="endArrow=none;html=1;rounded=0;" edge="1" parent="1">
          <mxGeometry width="50" height="50" relative="1" as="geometry">
            <mxPoint x="260" y="-900" as="sourcePoint" />
            <mxPoint x="320" y="-900" as="targetPoint" />
          </mxGeometry>
        </mxCell>
        <mxCell id="hXMPYN5qLVU3_iHfUdJ2-69" value="" style="endArrow=none;html=1;rounded=0;" edge="1" parent="1">
          <mxGeometry width="50" height="50" relative="1" as="geometry">
            <mxPoint x="400" y="-900" as="sourcePoint" />
            <mxPoint x="460" y="-900" as="targetPoint" />
          </mxGeometry>
        </mxCell>
        <mxCell id="hXMPYN5qLVU3_iHfUdJ2-70" value="Go to Magellan&#39;s Cross" style="rounded=0;whiteSpace=wrap;html=1;" vertex="1" parent="1">
          <mxGeometry x="310" y="-920" width="110" height="40" as="geometry" />
        </mxCell>
        <mxCell id="hXMPYN5qLVU3_iHfUdJ2-72" value="&lt;font style=&quot;font-size: 10px;&quot;&gt;Am I hungry?&lt;/font&gt;" style="rhombus;whiteSpace=wrap;html=1;" vertex="1" parent="1">
          <mxGeometry x="318" y="-820" width="80" height="80" as="geometry" />
        </mxCell>
        <mxCell id="hXMPYN5qLVU3_iHfUdJ2-73" value="&lt;font color=&quot;#ff0000&quot;&gt;No&lt;/font&gt;" style="text;html=1;strokeColor=none;fillColor=none;align=center;verticalAlign=middle;whiteSpace=wrap;rounded=0;" vertex="1" parent="1">
          <mxGeometry x="262.5" y="-810" width="60" height="30" as="geometry" />
        </mxCell>
        <mxCell id="hXMPYN5qLVU3_iHfUdJ2-74" value="&lt;font color=&quot;#009900&quot;&gt;Yes&lt;/font&gt;" style="text;html=1;strokeColor=none;fillColor=none;align=center;verticalAlign=middle;whiteSpace=wrap;rounded=0;" vertex="1" parent="1">
          <mxGeometry x="398" y="-810" width="60" height="30" as="geometry" />
        </mxCell>
        <mxCell id="hXMPYN5qLVU3_iHfUdJ2-75" value="" style="endArrow=none;html=1;rounded=0;" edge="1" parent="1" target="hXMPYN5qLVU3_iHfUdJ2-72">
          <mxGeometry width="50" height="50" relative="1" as="geometry">
            <mxPoint x="262.5" y="-780" as="sourcePoint" />
            <mxPoint x="318" y="-780" as="targetPoint" />
          </mxGeometry>
        </mxCell>
        <mxCell id="hXMPYN5qLVU3_iHfUdJ2-76" value="Continue to next destination" style="rounded=0;whiteSpace=wrap;html=1;" vertex="1" parent="1">
          <mxGeometry x="210" y="-720" width="110" height="40" as="geometry" />
        </mxCell>
        <mxCell id="hXMPYN5qLVU3_iHfUdJ2-77" value="" style="endArrow=none;html=1;rounded=0;exitX=0;exitY=1;exitDx=0;exitDy=0;" edge="1" parent="1" source="hXMPYN5qLVU3_iHfUdJ2-73">
          <mxGeometry width="50" height="50" relative="1" as="geometry">
            <mxPoint x="212.5" y="-840" as="sourcePoint" />
            <mxPoint x="262.5" y="-720" as="targetPoint" />
          </mxGeometry>
        </mxCell>
        <mxCell id="hXMPYN5qLVU3_iHfUdJ2-78" value="" style="endArrow=none;html=1;rounded=0;entryX=1;entryY=0.5;entryDx=0;entryDy=0;" edge="1" parent="1" target="hXMPYN5qLVU3_iHfUdJ2-72">
          <mxGeometry width="50" height="50" relative="1" as="geometry">
            <mxPoint x="462.5" y="-780" as="sourcePoint" />
            <mxPoint x="332.5" y="-780" as="targetPoint" />
          </mxGeometry>
        </mxCell>
        <mxCell id="hXMPYN5qLVU3_iHfUdJ2-79" value="" style="endArrow=none;html=1;rounded=0;exitX=0;exitY=1;exitDx=0;exitDy=0;" edge="1" parent="1">
          <mxGeometry width="50" height="50" relative="1" as="geometry">
            <mxPoint x="462.5" y="-780" as="sourcePoint" />
            <mxPoint x="462.5" y="-720" as="targetPoint" />
          </mxGeometry>
        </mxCell>
        <mxCell id="hXMPYN5qLVU3_iHfUdJ2-80" value="Eat" style="rounded=0;whiteSpace=wrap;html=1;" vertex="1" parent="1">
          <mxGeometry x="410" y="-720" width="110" height="40" as="geometry" />
        </mxCell>
        <mxCell id="hXMPYN5qLVU3_iHfUdJ2-81" value="" style="endArrow=none;html=1;rounded=0;exitX=0.5;exitY=0;exitDx=0;exitDy=0;entryX=0.444;entryY=1.01;entryDx=0;entryDy=0;entryPerimeter=0;" edge="1" parent="1" source="hXMPYN5qLVU3_iHfUdJ2-72" target="hXMPYN5qLVU3_iHfUdJ2-70">
          <mxGeometry width="50" height="50" relative="1" as="geometry">
            <mxPoint x="280" y="-950" as="sourcePoint" />
            <mxPoint x="358" y="-870" as="targetPoint" />
          </mxGeometry>
        </mxCell>
        <mxCell id="hXMPYN5qLVU3_iHfUdJ2-84" value="" style="endArrow=none;html=1;rounded=0;" edge="1" parent="1">
          <mxGeometry width="50" height="50" relative="1" as="geometry">
            <mxPoint x="259.5" y="-620" as="sourcePoint" />
            <mxPoint x="315" y="-620" as="targetPoint" />
          </mxGeometry>
        </mxCell>
        <mxCell id="hXMPYN5qLVU3_iHfUdJ2-85" value="" style="endArrow=none;html=1;rounded=0;exitX=0;exitY=1;exitDx=0;exitDy=0;" edge="1" parent="1">
          <mxGeometry width="50" height="50" relative="1" as="geometry">
            <mxPoint x="260.07" y="-680" as="sourcePoint" />
            <mxPoint x="259.57" y="-620" as="targetPoint" />
          </mxGeometry>
        </mxCell>
        <mxCell id="hXMPYN5qLVU3_iHfUdJ2-86" value="" style="endArrow=none;html=1;rounded=0;exitX=0;exitY=1;exitDx=0;exitDy=0;" edge="1" parent="1">
          <mxGeometry width="50" height="50" relative="1" as="geometry">
            <mxPoint x="464.57" y="-680" as="sourcePoint" />
            <mxPoint x="464.57" y="-620" as="targetPoint" />
          </mxGeometry>
        </mxCell>
        <mxCell id="hXMPYN5qLVU3_iHfUdJ2-88" value="" style="endArrow=none;html=1;rounded=0;" edge="1" parent="1">
          <mxGeometry width="50" height="50" relative="1" as="geometry">
            <mxPoint x="410" y="-620" as="sourcePoint" />
            <mxPoint x="465.5" y="-620" as="targetPoint" />
          </mxGeometry>
        </mxCell>
        <mxCell id="hXMPYN5qLVU3_iHfUdJ2-89" value="Go back to Hotel" style="rounded=0;whiteSpace=wrap;html=1;" vertex="1" parent="1">
          <mxGeometry x="303" y="-640" width="110" height="40" as="geometry" />
        </mxCell>
        <mxCell id="hXMPYN5qLVU3_iHfUdJ2-90" value="&lt;font style=&quot;font-size: 10px;&quot;&gt;Am I tired&lt;/font&gt;" style="rhombus;whiteSpace=wrap;html=1;" vertex="1" parent="1">
          <mxGeometry x="318" y="-540" width="80" height="80" as="geometry" />
        </mxCell>
        <mxCell id="hXMPYN5qLVU3_iHfUdJ2-91" value="" style="endArrow=none;html=1;rounded=0;exitX=0.5;exitY=0;exitDx=0;exitDy=0;entryX=0.444;entryY=1.01;entryDx=0;entryDy=0;entryPerimeter=0;" edge="1" parent="1">
          <mxGeometry width="50" height="50" relative="1" as="geometry">
            <mxPoint x="357.5" y="-540" as="sourcePoint" />
            <mxPoint x="358.5" y="-600" as="targetPoint" />
          </mxGeometry>
        </mxCell>
        <mxCell id="hXMPYN5qLVU3_iHfUdJ2-92" value="&lt;font color=&quot;#ff0000&quot;&gt;No&lt;/font&gt;" style="text;html=1;strokeColor=none;fillColor=none;align=center;verticalAlign=middle;whiteSpace=wrap;rounded=0;" vertex="1" parent="1">
          <mxGeometry x="260" y="-530" width="60" height="30" as="geometry" />
        </mxCell>
        <mxCell id="hXMPYN5qLVU3_iHfUdJ2-93" value="&lt;font color=&quot;#009900&quot;&gt;Yes&lt;/font&gt;" style="text;html=1;strokeColor=none;fillColor=none;align=center;verticalAlign=middle;whiteSpace=wrap;rounded=0;" vertex="1" parent="1">
          <mxGeometry x="398" y="-530" width="60" height="30" as="geometry" />
        </mxCell>
        <mxCell id="hXMPYN5qLVU3_iHfUdJ2-94" value="" style="endArrow=none;html=1;rounded=0;entryX=1;entryY=0.5;entryDx=0;entryDy=0;" edge="1" parent="1">
          <mxGeometry width="50" height="50" relative="1" as="geometry">
            <mxPoint x="480" y="-500" as="sourcePoint" />
            <mxPoint x="398" y="-500" as="targetPoint" />
          </mxGeometry>
        </mxCell>
        <mxCell id="hXMPYN5qLVU3_iHfUdJ2-95" value="" style="endArrow=none;html=1;rounded=0;" edge="1" parent="1">
          <mxGeometry width="50" height="50" relative="1" as="geometry">
            <mxPoint x="318" y="-500" as="sourcePoint" />
            <mxPoint x="240" y="-500" as="targetPoint" />
          </mxGeometry>
        </mxCell>
        <mxCell id="hXMPYN5qLVU3_iHfUdJ2-96" value="" style="endArrow=none;html=1;rounded=0;" edge="1" parent="1">
          <mxGeometry width="50" height="50" relative="1" as="geometry">
            <mxPoint x="240.18" y="-500" as="sourcePoint" />
            <mxPoint x="240" y="-440" as="targetPoint" />
          </mxGeometry>
        </mxCell>
        <mxCell id="hXMPYN5qLVU3_iHfUdJ2-97" value="" style="endArrow=none;html=1;rounded=0;exitX=0;exitY=1;exitDx=0;exitDy=0;" edge="1" parent="1">
          <mxGeometry width="50" height="50" relative="1" as="geometry">
            <mxPoint x="480.5" y="-500" as="sourcePoint" />
            <mxPoint x="480" y="-320" as="targetPoint" />
          </mxGeometry>
        </mxCell>
        <mxCell id="hXMPYN5qLVU3_iHfUdJ2-99" value="Watch movies" style="rounded=0;whiteSpace=wrap;html=1;" vertex="1" parent="1">
          <mxGeometry x="190" y="-440" width="110" height="40" as="geometry" />
        </mxCell>
        <mxCell id="hXMPYN5qLVU3_iHfUdJ2-100" value="Wake up at 7" style="shape=parallelogram;perimeter=parallelogramPerimeter;whiteSpace=wrap;html=1;fixedSize=1;" vertex="1" parent="1">
          <mxGeometry x="293" y="-1370" width="120" height="60" as="geometry" />
        </mxCell>
        <mxCell id="hXMPYN5qLVU3_iHfUdJ2-101" value="Sleep" style="rounded=0;whiteSpace=wrap;html=1;" vertex="1" parent="1">
          <mxGeometry x="304" y="-340" width="110" height="40" as="geometry" />
        </mxCell>
        <mxCell id="hXMPYN5qLVU3_iHfUdJ2-103" value="" style="endArrow=none;html=1;rounded=0;" edge="1" parent="1">
          <mxGeometry width="50" height="50" relative="1" as="geometry">
            <mxPoint x="240.18" y="-400" as="sourcePoint" />
            <mxPoint x="240" y="-320" as="targetPoint" />
          </mxGeometry>
        </mxCell>
        <mxCell id="hXMPYN5qLVU3_iHfUdJ2-104" value="" style="endArrow=none;html=1;rounded=0;entryX=0;entryY=0.5;entryDx=0;entryDy=0;" edge="1" parent="1" target="hXMPYN5qLVU3_iHfUdJ2-101">
          <mxGeometry width="50" height="50" relative="1" as="geometry">
            <mxPoint x="240" y="-320" as="sourcePoint" />
            <mxPoint x="340" y="-420" as="targetPoint" />
          </mxGeometry>
        </mxCell>
        <mxCell id="hXMPYN5qLVU3_iHfUdJ2-105" value="" style="endArrow=none;html=1;rounded=0;exitX=1;exitY=0.5;exitDx=0;exitDy=0;" edge="1" parent="1" source="hXMPYN5qLVU3_iHfUdJ2-101">
          <mxGeometry width="50" height="50" relative="1" as="geometry">
            <mxPoint x="290" y="-370" as="sourcePoint" />
            <mxPoint x="480" y="-320" as="targetPoint" />
          </mxGeometry>
        </mxCell>
        <mxCell id="hXMPYN5qLVU3_iHfUdJ2-106" value="" style="endArrow=none;html=1;rounded=0;entryX=0.445;entryY=1.1;entryDx=0;entryDy=0;entryPerimeter=0;" edge="1" parent="1">
          <mxGeometry width="50" height="50" relative="1" as="geometry">
            <mxPoint x="361.55" y="-144" as="sourcePoint" />
            <mxPoint x="361.50000000000006" y="-200" as="targetPoint" />
          </mxGeometry>
        </mxCell>
        <mxCell id="hXMPYN5qLVU3_iHfUdJ2-107" value="Eat breakfast" style="rounded=0;whiteSpace=wrap;html=1;" vertex="1" parent="1">
          <mxGeometry x="307" y="-160" width="110" height="40" as="geometry" />
        </mxCell>
        <mxCell id="hXMPYN5qLVU3_iHfUdJ2-108" value="" style="endArrow=none;html=1;rounded=0;entryX=0.445;entryY=1.1;entryDx=0;entryDy=0;entryPerimeter=0;" edge="1" parent="1">
          <mxGeometry width="50" height="50" relative="1" as="geometry">
            <mxPoint x="361.5" y="-70" as="sourcePoint" />
            <mxPoint x="361.50000000000006" y="-120" as="targetPoint" />
          </mxGeometry>
        </mxCell>
        <mxCell id="hXMPYN5qLVU3_iHfUdJ2-109" value="Go to Bohol" style="rounded=0;whiteSpace=wrap;html=1;" vertex="1" parent="1">
          <mxGeometry x="307" y="-70" width="110" height="40" as="geometry" />
        </mxCell>
        <mxCell id="hXMPYN5qLVU3_iHfUdJ2-110" value="Wake up at 7am" style="shape=parallelogram;perimeter=parallelogramPerimeter;whiteSpace=wrap;html=1;fixedSize=1;" vertex="1" parent="1">
          <mxGeometry x="300" y="-250" width="120" height="60" as="geometry" />
        </mxCell>
        <mxCell id="hXMPYN5qLVU3_iHfUdJ2-113" value="" style="endArrow=none;html=1;rounded=0;entryX=0.445;entryY=1.1;entryDx=0;entryDy=0;entryPerimeter=0;" edge="1" parent="1">
          <mxGeometry width="50" height="50" relative="1" as="geometry">
            <mxPoint x="362" y="-250" as="sourcePoint" />
            <mxPoint x="361.50000000000006" y="-300" as="targetPoint" />
          </mxGeometry>
        </mxCell>
        <mxCell id="hXMPYN5qLVU3_iHfUdJ2-114" value="Take a bath" style="rounded=0;whiteSpace=wrap;html=1;" vertex="1" parent="1">
          <mxGeometry x="430" y="-440" width="110" height="40" as="geometry" />
        </mxCell>
        <mxCell id="hXMPYN5qLVU3_iHfUdJ2-115" value="Check time" style="shape=parallelogram;perimeter=parallelogramPerimeter;whiteSpace=wrap;html=1;fixedSize=1;" vertex="1" parent="1">
          <mxGeometry x="301.5" y="20" width="120" height="60" as="geometry" />
        </mxCell>
        <mxCell id="hXMPYN5qLVU3_iHfUdJ2-116" value="" style="endArrow=none;html=1;rounded=0;entryX=0.5;entryY=1;entryDx=0;entryDy=0;" edge="1" parent="1">
          <mxGeometry width="50" height="50" relative="1" as="geometry">
            <mxPoint x="361" y="120" as="sourcePoint" />
            <mxPoint x="361" y="80" as="targetPoint" />
            <Array as="points">
              <mxPoint x="361" y="120" />
            </Array>
          </mxGeometry>
        </mxCell>
        <mxCell id="hXMPYN5qLVU3_iHfUdJ2-117" style="edgeStyle=orthogonalEdgeStyle;rounded=0;orthogonalLoop=1;jettySize=auto;html=1;" edge="1" parent="1" source="hXMPYN5qLVU3_iHfUdJ2-118">
          <mxGeometry relative="1" as="geometry">
            <mxPoint x="361.5" y="100" as="targetPoint" />
          </mxGeometry>
        </mxCell>
        <mxCell id="hXMPYN5qLVU3_iHfUdJ2-118" value="&lt;font style=&quot;font-size: 10px;&quot;&gt;is it already 12pm?&lt;/font&gt;" style="rhombus;whiteSpace=wrap;html=1;" vertex="1" parent="1">
          <mxGeometry x="321.5" y="120" width="80" height="80" as="geometry" />
        </mxCell>
        <mxCell id="hXMPYN5qLVU3_iHfUdJ2-119" value="" style="endArrow=none;html=1;rounded=0;" edge="1" parent="1">
          <mxGeometry width="50" height="50" relative="1" as="geometry">
            <mxPoint x="401.5" y="160" as="sourcePoint" />
            <mxPoint x="470" y="160" as="targetPoint" />
            <Array as="points">
              <mxPoint x="401.5" y="160" />
            </Array>
          </mxGeometry>
        </mxCell>
        <mxCell id="hXMPYN5qLVU3_iHfUdJ2-121" value="&lt;font color=&quot;#ff0000&quot;&gt;No&lt;/font&gt;" style="text;html=1;strokeColor=none;fillColor=none;align=center;verticalAlign=middle;whiteSpace=wrap;rounded=0;" vertex="1" parent="1">
          <mxGeometry x="262.5" y="130" width="60" height="30" as="geometry" />
        </mxCell>
        <mxCell id="hXMPYN5qLVU3_iHfUdJ2-122" value="&lt;font color=&quot;#009900&quot;&gt;Yes&lt;/font&gt;" style="text;html=1;strokeColor=none;fillColor=none;align=center;verticalAlign=middle;whiteSpace=wrap;rounded=0;" vertex="1" parent="1">
          <mxGeometry x="407.5" y="140" width="60" height="20" as="geometry" />
        </mxCell>
        <mxCell id="hXMPYN5qLVU3_iHfUdJ2-124" value="" style="endArrow=none;html=1;rounded=0;" edge="1" parent="1">
          <mxGeometry width="50" height="50" relative="1" as="geometry">
            <mxPoint x="470" y="200" as="sourcePoint" />
            <mxPoint x="470" y="160" as="targetPoint" />
          </mxGeometry>
        </mxCell>
        <mxCell id="hXMPYN5qLVU3_iHfUdJ2-125" value="" style="endArrow=none;html=1;rounded=0;entryX=0.445;entryY=1.1;entryDx=0;entryDy=0;entryPerimeter=0;" edge="1" parent="1">
          <mxGeometry width="50" height="50" relative="1" as="geometry">
            <mxPoint x="361" y="20" as="sourcePoint" />
            <mxPoint x="361.00000000000006" y="-30" as="targetPoint" />
          </mxGeometry>
        </mxCell>
        <mxCell id="hXMPYN5qLVU3_iHfUdJ2-126" value="Go to restaurant" style="rounded=0;whiteSpace=wrap;html=1;" vertex="1" parent="1">
          <mxGeometry x="212.5" y="200" width="110" height="40" as="geometry" />
        </mxCell>
        <mxCell id="hXMPYN5qLVU3_iHfUdJ2-131" value="Go to Hotel" style="rounded=0;whiteSpace=wrap;html=1;" vertex="1" parent="1">
          <mxGeometry x="410" y="200" width="110" height="40" as="geometry" />
        </mxCell>
        <mxCell id="hXMPYN5qLVU3_iHfUdJ2-142" value="" style="endArrow=none;html=1;rounded=0;" edge="1" parent="1">
          <mxGeometry width="50" height="50" relative="1" as="geometry">
            <mxPoint x="470" y="200" as="sourcePoint" />
            <mxPoint x="470" y="160" as="targetPoint" />
          </mxGeometry>
        </mxCell>
        <mxCell id="hXMPYN5qLVU3_iHfUdJ2-143" value="" style="endArrow=none;html=1;rounded=0;" edge="1" parent="1">
          <mxGeometry width="50" height="50" relative="1" as="geometry">
            <mxPoint x="260" y="200" as="sourcePoint" />
            <mxPoint x="260" y="160" as="targetPoint" />
          </mxGeometry>
        </mxCell>
        <mxCell id="hXMPYN5qLVU3_iHfUdJ2-144" value="" style="endArrow=none;html=1;rounded=0;entryX=0;entryY=0.5;entryDx=0;entryDy=0;" edge="1" parent="1" target="hXMPYN5qLVU3_iHfUdJ2-118">
          <mxGeometry width="50" height="50" relative="1" as="geometry">
            <mxPoint x="260" y="160" as="sourcePoint" />
            <mxPoint x="310" y="160" as="targetPoint" />
          </mxGeometry>
        </mxCell>
        <mxCell id="hXMPYN5qLVU3_iHfUdJ2-146" value="Eat" style="rounded=0;whiteSpace=wrap;html=1;" vertex="1" parent="1">
          <mxGeometry x="211.5" y="280" width="110" height="40" as="geometry" />
        </mxCell>
        <mxCell id="hXMPYN5qLVU3_iHfUdJ2-147" value="" style="endArrow=none;html=1;rounded=0;" edge="1" parent="1">
          <mxGeometry width="50" height="50" relative="1" as="geometry">
            <mxPoint x="260" y="280" as="sourcePoint" />
            <mxPoint x="260" y="240" as="targetPoint" />
          </mxGeometry>
        </mxCell>
        <mxCell id="hXMPYN5qLVU3_iHfUdJ2-149" value="Go to Hotel" style="rounded=0;whiteSpace=wrap;html=1;" vertex="1" parent="1">
          <mxGeometry x="210" y="360" width="110" height="40" as="geometry" />
        </mxCell>
        <mxCell id="hXMPYN5qLVU3_iHfUdJ2-151" value="" style="endArrow=none;html=1;rounded=0;" edge="1" parent="1">
          <mxGeometry width="50" height="50" relative="1" as="geometry">
            <mxPoint x="260" y="360" as="sourcePoint" />
            <mxPoint x="260" y="320" as="targetPoint" />
          </mxGeometry>
        </mxCell>
        <mxCell id="hXMPYN5qLVU3_iHfUdJ2-152" style="edgeStyle=orthogonalEdgeStyle;rounded=0;orthogonalLoop=1;jettySize=auto;html=1;exitX=0.5;exitY=1;exitDx=0;exitDy=0;" edge="1" parent="1" source="hXMPYN5qLVU3_iHfUdJ2-149" target="hXMPYN5qLVU3_iHfUdJ2-149">
          <mxGeometry relative="1" as="geometry" />
        </mxCell>
        <mxCell id="hXMPYN5qLVU3_iHfUdJ2-148" value="Take a nap" style="rounded=0;whiteSpace=wrap;html=1;" vertex="1" parent="1">
          <mxGeometry x="310" y="430" width="110" height="40" as="geometry" />
        </mxCell>
        <mxCell id="hXMPYN5qLVU3_iHfUdJ2-159" value="" style="endArrow=none;html=1;rounded=0;" edge="1" parent="1">
          <mxGeometry width="50" height="50" relative="1" as="geometry">
            <mxPoint x="260" y="450" as="sourcePoint" />
            <mxPoint x="259.2" y="400" as="targetPoint" />
          </mxGeometry>
        </mxCell>
        <mxCell id="hXMPYN5qLVU3_iHfUdJ2-160" value="Watch movie" style="rounded=0;whiteSpace=wrap;html=1;" vertex="1" parent="1">
          <mxGeometry x="410" y="280" width="110" height="40" as="geometry" />
        </mxCell>
        <mxCell id="hXMPYN5qLVU3_iHfUdJ2-161" value="" style="endArrow=none;html=1;rounded=0;entryX=0.5;entryY=1;entryDx=0;entryDy=0;exitX=0.5;exitY=0;exitDx=0;exitDy=0;" edge="1" parent="1" source="hXMPYN5qLVU3_iHfUdJ2-160" target="hXMPYN5qLVU3_iHfUdJ2-131">
          <mxGeometry width="50" height="50" relative="1" as="geometry">
            <mxPoint x="330" y="410" as="sourcePoint" />
            <mxPoint x="380" y="360" as="targetPoint" />
          </mxGeometry>
        </mxCell>
        <mxCell id="hXMPYN5qLVU3_iHfUdJ2-162" value="" style="endArrow=none;html=1;rounded=0;entryX=0.5;entryY=1;entryDx=0;entryDy=0;exitX=1;exitY=0.5;exitDx=0;exitDy=0;" edge="1" parent="1" source="hXMPYN5qLVU3_iHfUdJ2-148" target="hXMPYN5qLVU3_iHfUdJ2-160">
          <mxGeometry width="50" height="50" relative="1" as="geometry">
            <mxPoint x="430" y="450" as="sourcePoint" />
            <mxPoint x="380" y="360" as="targetPoint" />
            <Array as="points">
              <mxPoint x="465" y="450" />
            </Array>
          </mxGeometry>
        </mxCell>
        <mxCell id="hXMPYN5qLVU3_iHfUdJ2-163" value="" style="endArrow=none;html=1;rounded=0;entryX=0;entryY=0.5;entryDx=0;entryDy=0;" edge="1" parent="1" target="hXMPYN5qLVU3_iHfUdJ2-148">
          <mxGeometry width="50" height="50" relative="1" as="geometry">
            <mxPoint x="260" y="450" as="sourcePoint" />
            <mxPoint x="380" y="360" as="targetPoint" />
          </mxGeometry>
        </mxCell>
        <mxCell id="hXMPYN5qLVU3_iHfUdJ2-164" value="Wake up at 5pm" style="shape=parallelogram;perimeter=parallelogramPerimeter;whiteSpace=wrap;html=1;fixedSize=1;" vertex="1" parent="1">
          <mxGeometry x="304" y="540" width="120" height="60" as="geometry" />
        </mxCell>
        <mxCell id="hXMPYN5qLVU3_iHfUdJ2-165" value="" style="endArrow=none;html=1;rounded=0;entryX=0.5;entryY=1;entryDx=0;entryDy=0;exitX=0.5;exitY=0;exitDx=0;exitDy=0;" edge="1" parent="1" source="hXMPYN5qLVU3_iHfUdJ2-164" target="hXMPYN5qLVU3_iHfUdJ2-148">
          <mxGeometry width="50" height="50" relative="1" as="geometry">
            <mxPoint x="240" y="550" as="sourcePoint" />
            <mxPoint x="290" y="500" as="targetPoint" />
          </mxGeometry>
        </mxCell>
        <mxCell id="hXMPYN5qLVU3_iHfUdJ2-166" value="" style="endArrow=none;html=1;rounded=0;entryX=0.5;entryY=1;entryDx=0;entryDy=0;exitX=0.5;exitY=0;exitDx=0;exitDy=0;" edge="1" parent="1">
          <mxGeometry width="50" height="50" relative="1" as="geometry">
            <mxPoint x="363.33" y="670" as="sourcePoint" />
            <mxPoint x="364.33" y="600" as="targetPoint" />
          </mxGeometry>
        </mxCell>
        <mxCell id="hXMPYN5qLVU3_iHfUdJ2-167" value="Eat" style="rounded=0;whiteSpace=wrap;html=1;" vertex="1" parent="1">
          <mxGeometry x="305" y="670" width="110" height="40" as="geometry" />
        </mxCell>
        <mxCell id="hXMPYN5qLVU3_iHfUdJ2-168" value="Go to a local bar" style="rounded=0;whiteSpace=wrap;html=1;" vertex="1" parent="1">
          <mxGeometry x="305" y="780" width="110" height="40" as="geometry" />
        </mxCell>
        <mxCell id="hXMPYN5qLVU3_iHfUdJ2-169" value="" style="endArrow=none;html=1;rounded=0;entryX=0.5;entryY=1;entryDx=0;entryDy=0;exitX=0.5;exitY=0;exitDx=0;exitDy=0;" edge="1" parent="1">
          <mxGeometry width="50" height="50" relative="1" as="geometry">
            <mxPoint x="361.33" y="780" as="sourcePoint" />
            <mxPoint x="362.33" y="710" as="targetPoint" />
          </mxGeometry>
        </mxCell>
        <mxCell id="hXMPYN5qLVU3_iHfUdJ2-172" value="" style="endArrow=none;html=1;rounded=0;entryX=0.5;entryY=1;entryDx=0;entryDy=0;exitX=0.5;exitY=0;exitDx=0;exitDy=0;" edge="1" parent="1">
          <mxGeometry width="50" height="50" relative="1" as="geometry">
            <mxPoint x="359.33" y="890" as="sourcePoint" />
            <mxPoint x="360.33" y="820" as="targetPoint" />
          </mxGeometry>
        </mxCell>
        <mxCell id="hXMPYN5qLVU3_iHfUdJ2-173" value="Drink liquor" style="rounded=0;whiteSpace=wrap;html=1;" vertex="1" parent="1">
          <mxGeometry x="304" y="880" width="110" height="40" as="geometry" />
        </mxCell>
        <mxCell id="hXMPYN5qLVU3_iHfUdJ2-174" value="" style="endArrow=none;html=1;rounded=0;entryX=0.5;entryY=1;entryDx=0;entryDy=0;exitX=0.5;exitY=0;exitDx=0;exitDy=0;" edge="1" parent="1" source="hXMPYN5qLVU3_iHfUdJ2-176">
          <mxGeometry width="50" height="50" relative="1" as="geometry">
            <mxPoint x="358.33" y="990" as="sourcePoint" />
            <mxPoint x="359.33" y="920" as="targetPoint" />
          </mxGeometry>
        </mxCell>
        <mxCell id="hXMPYN5qLVU3_iHfUdJ2-176" value="&lt;font style=&quot;font-size: 10px;&quot;&gt;Am I drunk?&lt;/font&gt;" style="rhombus;whiteSpace=wrap;html=1;" vertex="1" parent="1">
          <mxGeometry x="319.25" y="990" width="80" height="80" as="geometry" />
        </mxCell>
        <mxCell id="hXMPYN5qLVU3_iHfUdJ2-177" value="" style="endArrow=none;html=1;rounded=0;" edge="1" parent="1">
          <mxGeometry width="50" height="50" relative="1" as="geometry">
            <mxPoint x="399.25" y="1030" as="sourcePoint" />
            <mxPoint x="467.75" y="1030" as="targetPoint" />
            <Array as="points">
              <mxPoint x="399.25" y="1030" />
            </Array>
          </mxGeometry>
        </mxCell>
        <mxCell id="hXMPYN5qLVU3_iHfUdJ2-178" value="&lt;font color=&quot;#ff0000&quot;&gt;No&lt;/font&gt;" style="text;html=1;strokeColor=none;fillColor=none;align=center;verticalAlign=middle;whiteSpace=wrap;rounded=0;" vertex="1" parent="1">
          <mxGeometry x="269.25" y="990" width="60" height="30" as="geometry" />
        </mxCell>
        <mxCell id="hXMPYN5qLVU3_iHfUdJ2-179" value="&lt;font color=&quot;#009900&quot;&gt;Yes&lt;/font&gt;" style="text;html=1;strokeColor=none;fillColor=none;align=center;verticalAlign=middle;whiteSpace=wrap;rounded=0;" vertex="1" parent="1">
          <mxGeometry x="395.75" y="990" width="60" height="20" as="geometry" />
        </mxCell>
        <mxCell id="hXMPYN5qLVU3_iHfUdJ2-180" value="" style="endArrow=none;html=1;rounded=0;" edge="1" parent="1">
          <mxGeometry width="50" height="50" relative="1" as="geometry">
            <mxPoint x="467.75" y="1070" as="sourcePoint" />
            <mxPoint x="467.75" y="1030" as="targetPoint" />
          </mxGeometry>
        </mxCell>
        <mxCell id="hXMPYN5qLVU3_iHfUdJ2-181" value="Continue drinking" style="rounded=0;whiteSpace=wrap;html=1;" vertex="1" parent="1">
          <mxGeometry x="210.25" y="1070" width="122.25" height="40" as="geometry" />
        </mxCell>
        <mxCell id="hXMPYN5qLVU3_iHfUdJ2-182" value="&lt;span style=&quot;font-weight: normal;&quot;&gt;Rest&amp;nbsp;&lt;/span&gt;" style="rounded=0;whiteSpace=wrap;html=1;fontStyle=1" vertex="1" parent="1">
          <mxGeometry x="407.75" y="1070" width="110" height="40" as="geometry" />
        </mxCell>
        <mxCell id="hXMPYN5qLVU3_iHfUdJ2-183" value="" style="endArrow=none;html=1;rounded=0;" edge="1" parent="1">
          <mxGeometry width="50" height="50" relative="1" as="geometry">
            <mxPoint x="467.75" y="1070" as="sourcePoint" />
            <mxPoint x="467.75" y="1030" as="targetPoint" />
          </mxGeometry>
        </mxCell>
        <mxCell id="hXMPYN5qLVU3_iHfUdJ2-184" value="" style="endArrow=none;html=1;rounded=0;" edge="1" parent="1">
          <mxGeometry width="50" height="50" relative="1" as="geometry">
            <mxPoint x="257.75" y="1070" as="sourcePoint" />
            <mxPoint x="257.75" y="1030" as="targetPoint" />
          </mxGeometry>
        </mxCell>
        <mxCell id="hXMPYN5qLVU3_iHfUdJ2-185" value="" style="endArrow=none;html=1;rounded=0;entryX=0;entryY=0.5;entryDx=0;entryDy=0;" edge="1" parent="1" target="hXMPYN5qLVU3_iHfUdJ2-176">
          <mxGeometry width="50" height="50" relative="1" as="geometry">
            <mxPoint x="257.75" y="1030" as="sourcePoint" />
            <mxPoint x="307.75" y="1030" as="targetPoint" />
          </mxGeometry>
        </mxCell>
        <mxCell id="hXMPYN5qLVU3_iHfUdJ2-186" value="" style="endArrow=none;html=1;rounded=0;" edge="1" parent="1">
          <mxGeometry width="50" height="50" relative="1" as="geometry">
            <mxPoint x="260" y="1180" as="sourcePoint" />
            <mxPoint x="260" y="1110" as="targetPoint" />
          </mxGeometry>
        </mxCell>
        <mxCell id="hXMPYN5qLVU3_iHfUdJ2-187" value="" style="endArrow=none;html=1;rounded=0;entryX=0.421;entryY=0.978;entryDx=0;entryDy=0;entryPerimeter=0;" edge="1" parent="1">
          <mxGeometry width="50" height="50" relative="1" as="geometry">
            <mxPoint x="470" y="1180" as="sourcePoint" />
            <mxPoint x="470" y="1110" as="targetPoint" />
          </mxGeometry>
        </mxCell>
        <mxCell id="hXMPYN5qLVU3_iHfUdJ2-188" value="Go back to hotel" style="rounded=0;whiteSpace=wrap;html=1;" vertex="1" parent="1">
          <mxGeometry x="305" y="1160" width="110" height="40" as="geometry" />
        </mxCell>
        <mxCell id="hXMPYN5qLVU3_iHfUdJ2-189" style="edgeStyle=orthogonalEdgeStyle;rounded=0;orthogonalLoop=1;jettySize=auto;html=1;exitX=0.5;exitY=1;exitDx=0;exitDy=0;" edge="1" parent="1" source="hXMPYN5qLVU3_iHfUdJ2-188" target="hXMPYN5qLVU3_iHfUdJ2-188">
          <mxGeometry relative="1" as="geometry" />
        </mxCell>
        <mxCell id="hXMPYN5qLVU3_iHfUdJ2-190" value="" style="endArrow=none;html=1;rounded=0;entryX=0;entryY=0.5;entryDx=0;entryDy=0;" edge="1" parent="1" target="hXMPYN5qLVU3_iHfUdJ2-188">
          <mxGeometry width="50" height="50" relative="1" as="geometry">
            <mxPoint x="260" y="1180" as="sourcePoint" />
            <mxPoint x="300" y="1180" as="targetPoint" />
          </mxGeometry>
        </mxCell>
        <mxCell id="hXMPYN5qLVU3_iHfUdJ2-191" value="" style="endArrow=none;html=1;rounded=0;exitX=1;exitY=0.5;exitDx=0;exitDy=0;" edge="1" parent="1" source="hXMPYN5qLVU3_iHfUdJ2-188">
          <mxGeometry width="50" height="50" relative="1" as="geometry">
            <mxPoint x="421.5" y="1179.78" as="sourcePoint" />
            <mxPoint x="470" y="1180" as="targetPoint" />
          </mxGeometry>
        </mxCell>
        <mxCell id="hXMPYN5qLVU3_iHfUdJ2-192" value="" style="endArrow=none;html=1;rounded=0;entryX=0.5;entryY=1;entryDx=0;entryDy=0;" edge="1" parent="1" target="hXMPYN5qLVU3_iHfUdJ2-188">
          <mxGeometry width="50" height="50" relative="1" as="geometry">
            <mxPoint x="360" y="1240" as="sourcePoint" />
            <mxPoint x="290" y="1250" as="targetPoint" />
          </mxGeometry>
        </mxCell>
        <mxCell id="hXMPYN5qLVU3_iHfUdJ2-193" value="Sleep" style="rounded=0;whiteSpace=wrap;html=1;" vertex="1" parent="1">
          <mxGeometry x="304" y="1240" width="110" height="40" as="geometry" />
        </mxCell>
        <mxCell id="hXMPYN5qLVU3_iHfUdJ2-195" value="" style="endArrow=none;html=1;rounded=0;entryX=0.5;entryY=1;entryDx=0;entryDy=0;" edge="1" parent="1">
          <mxGeometry width="50" height="50" relative="1" as="geometry">
            <mxPoint x="359.47" y="1320" as="sourcePoint" />
            <mxPoint x="359.47" y="1280" as="targetPoint" />
          </mxGeometry>
        </mxCell>
        <mxCell id="hXMPYN5qLVU3_iHfUdJ2-210" value="" style="endArrow=none;html=1;rounded=0;entryX=0.445;entryY=1.1;entryDx=0;entryDy=0;entryPerimeter=0;" edge="1" parent="1">
          <mxGeometry width="50" height="50" relative="1" as="geometry">
            <mxPoint x="352.05" y="1426" as="sourcePoint" />
            <mxPoint x="352.00000000000006" y="1370" as="targetPoint" />
          </mxGeometry>
        </mxCell>
        <mxCell id="hXMPYN5qLVU3_iHfUdJ2-211" value="Eat breakfast" style="rounded=0;whiteSpace=wrap;html=1;" vertex="1" parent="1">
          <mxGeometry x="297.5" y="1410" width="110" height="40" as="geometry" />
        </mxCell>
        <mxCell id="hXMPYN5qLVU3_iHfUdJ2-212" value="" style="endArrow=none;html=1;rounded=0;entryX=0.445;entryY=1.1;entryDx=0;entryDy=0;entryPerimeter=0;" edge="1" parent="1">
          <mxGeometry width="50" height="50" relative="1" as="geometry">
            <mxPoint x="352" y="1500" as="sourcePoint" />
            <mxPoint x="352.00000000000006" y="1450" as="targetPoint" />
          </mxGeometry>
        </mxCell>
        <mxCell id="hXMPYN5qLVU3_iHfUdJ2-213" value="Go to Alona beach" style="rounded=0;whiteSpace=wrap;html=1;" vertex="1" parent="1">
          <mxGeometry x="297.5" y="1500" width="110" height="40" as="geometry" />
        </mxCell>
        <mxCell id="hXMPYN5qLVU3_iHfUdJ2-214" value="" style="endArrow=none;html=1;rounded=0;entryX=0.445;entryY=1.1;entryDx=0;entryDy=0;entryPerimeter=0;" edge="1" parent="1">
          <mxGeometry width="50" height="50" relative="1" as="geometry">
            <mxPoint x="352" y="1590" as="sourcePoint" />
            <mxPoint x="352.00000000000006" y="1540" as="targetPoint" />
          </mxGeometry>
        </mxCell>
        <mxCell id="hXMPYN5qLVU3_iHfUdJ2-215" value="&lt;font style=&quot;font-size: 10px;&quot;&gt;Am I hungry?&lt;/font&gt;" style="rhombus;whiteSpace=wrap;html=1;" vertex="1" parent="1">
          <mxGeometry x="312.5" y="1590" width="80" height="80" as="geometry" />
        </mxCell>
        <mxCell id="hXMPYN5qLVU3_iHfUdJ2-216" value="&lt;font color=&quot;#ff0000&quot;&gt;No&lt;/font&gt;" style="text;html=1;strokeColor=none;fillColor=none;align=center;verticalAlign=middle;whiteSpace=wrap;rounded=0;" vertex="1" parent="1">
          <mxGeometry x="257.5" y="1600" width="60" height="30" as="geometry" />
        </mxCell>
        <mxCell id="hXMPYN5qLVU3_iHfUdJ2-217" value="&lt;font color=&quot;#009900&quot;&gt;Yes&lt;/font&gt;" style="text;html=1;strokeColor=none;fillColor=none;align=center;verticalAlign=middle;whiteSpace=wrap;rounded=0;" vertex="1" parent="1">
          <mxGeometry x="407.5" y="1590" width="60" height="30" as="geometry" />
        </mxCell>
        <mxCell id="hXMPYN5qLVU3_iHfUdJ2-218" value="" style="endArrow=none;html=1;rounded=0;entryX=0;entryY=0.5;entryDx=0;entryDy=0;" edge="1" parent="1" target="hXMPYN5qLVU3_iHfUdJ2-215">
          <mxGeometry width="50" height="50" relative="1" as="geometry">
            <mxPoint x="257.5" y="1630" as="sourcePoint" />
            <mxPoint x="307.5" y="1340" as="targetPoint" />
          </mxGeometry>
        </mxCell>
        <mxCell id="hXMPYN5qLVU3_iHfUdJ2-219" value="Continue to next destination" style="rounded=0;whiteSpace=wrap;html=1;" vertex="1" parent="1">
          <mxGeometry x="202.5" y="1690" width="110" height="40" as="geometry" />
        </mxCell>
        <mxCell id="hXMPYN5qLVU3_iHfUdJ2-220" value="" style="endArrow=none;html=1;rounded=0;exitX=0;exitY=1;exitDx=0;exitDy=0;" edge="1" parent="1" source="hXMPYN5qLVU3_iHfUdJ2-216">
          <mxGeometry width="50" height="50" relative="1" as="geometry">
            <mxPoint x="207.5" y="1570" as="sourcePoint" />
            <mxPoint x="257.5" y="1690" as="targetPoint" />
          </mxGeometry>
        </mxCell>
        <mxCell id="hXMPYN5qLVU3_iHfUdJ2-221" value="" style="endArrow=none;html=1;rounded=0;entryX=1;entryY=0.5;entryDx=0;entryDy=0;" edge="1" parent="1" target="hXMPYN5qLVU3_iHfUdJ2-215">
          <mxGeometry width="50" height="50" relative="1" as="geometry">
            <mxPoint x="457.5" y="1630" as="sourcePoint" />
            <mxPoint x="327.5" y="1630" as="targetPoint" />
          </mxGeometry>
        </mxCell>
        <mxCell id="hXMPYN5qLVU3_iHfUdJ2-222" value="" style="endArrow=none;html=1;rounded=0;exitX=0;exitY=1;exitDx=0;exitDy=0;" edge="1" parent="1">
          <mxGeometry width="50" height="50" relative="1" as="geometry">
            <mxPoint x="457.5" y="1630" as="sourcePoint" />
            <mxPoint x="457.5" y="1690" as="targetPoint" />
          </mxGeometry>
        </mxCell>
        <mxCell id="hXMPYN5qLVU3_iHfUdJ2-223" value="Eat" style="rounded=0;whiteSpace=wrap;html=1;" vertex="1" parent="1">
          <mxGeometry x="407.5" y="1690" width="110" height="40" as="geometry" />
        </mxCell>
        <mxCell id="hXMPYN5qLVU3_iHfUdJ2-224" value="" style="endArrow=none;html=1;rounded=0;exitX=0;exitY=1;exitDx=0;exitDy=0;" edge="1" parent="1">
          <mxGeometry width="50" height="50" relative="1" as="geometry">
            <mxPoint x="457.5" y="1730" as="sourcePoint" />
            <mxPoint x="457.5" y="1790" as="targetPoint" />
          </mxGeometry>
        </mxCell>
        <mxCell id="hXMPYN5qLVU3_iHfUdJ2-225" value="" style="endArrow=none;html=1;rounded=0;exitX=0;exitY=1;exitDx=0;exitDy=0;" edge="1" parent="1">
          <mxGeometry width="50" height="50" relative="1" as="geometry">
            <mxPoint x="256.25" y="1730" as="sourcePoint" />
            <mxPoint x="256.25" y="1790" as="targetPoint" />
          </mxGeometry>
        </mxCell>
        <mxCell id="hXMPYN5qLVU3_iHfUdJ2-226" value="" style="endArrow=none;html=1;rounded=0;" edge="1" parent="1">
          <mxGeometry width="50" height="50" relative="1" as="geometry">
            <mxPoint x="257.5" y="1790" as="sourcePoint" />
            <mxPoint x="317.5" y="1790" as="targetPoint" />
          </mxGeometry>
        </mxCell>
        <mxCell id="hXMPYN5qLVU3_iHfUdJ2-227" value="" style="endArrow=none;html=1;rounded=0;" edge="1" parent="1">
          <mxGeometry width="50" height="50" relative="1" as="geometry">
            <mxPoint x="397.5" y="1790" as="sourcePoint" />
            <mxPoint x="457.5" y="1790" as="targetPoint" />
          </mxGeometry>
        </mxCell>
        <mxCell id="hXMPYN5qLVU3_iHfUdJ2-228" value="Go to Loboc Church" style="rounded=0;whiteSpace=wrap;html=1;" vertex="1" parent="1">
          <mxGeometry x="307.5" y="1770" width="110" height="40" as="geometry" />
        </mxCell>
        <mxCell id="hXMPYN5qLVU3_iHfUdJ2-230" value="Wake up at 7" style="shape=parallelogram;perimeter=parallelogramPerimeter;whiteSpace=wrap;html=1;fixedSize=1;" vertex="1" parent="1">
          <mxGeometry x="290.5" y="1320" width="120" height="60" as="geometry" />
        </mxCell>
        <mxCell id="hXMPYN5qLVU3_iHfUdJ2-231" value="" style="endArrow=none;html=1;rounded=0;entryX=0.5;entryY=1;entryDx=0;entryDy=0;" edge="1" parent="1">
          <mxGeometry width="50" height="50" relative="1" as="geometry">
            <mxPoint x="359" y="1880" as="sourcePoint" />
            <mxPoint x="359.2499999999999" y="1810" as="targetPoint" />
          </mxGeometry>
        </mxCell>
        <mxCell id="hXMPYN5qLVU3_iHfUdJ2-232" value="&lt;font style=&quot;font-size: 10px;&quot;&gt;Am I hungry?&lt;/font&gt;" style="rhombus;whiteSpace=wrap;html=1;" vertex="1" parent="1">
          <mxGeometry x="319" y="1880" width="80" height="80" as="geometry" />
        </mxCell>
        <mxCell id="hXMPYN5qLVU3_iHfUdJ2-233" value="&lt;font color=&quot;#ff0000&quot;&gt;No&lt;/font&gt;" style="text;html=1;strokeColor=none;fillColor=none;align=center;verticalAlign=middle;whiteSpace=wrap;rounded=0;" vertex="1" parent="1">
          <mxGeometry x="261.5" y="1890" width="60" height="30" as="geometry" />
        </mxCell>
        <mxCell id="hXMPYN5qLVU3_iHfUdJ2-234" value="&lt;font color=&quot;#009900&quot;&gt;Yes&lt;/font&gt;" style="text;html=1;strokeColor=none;fillColor=none;align=center;verticalAlign=middle;whiteSpace=wrap;rounded=0;" vertex="1" parent="1">
          <mxGeometry x="397" y="1890" width="60" height="30" as="geometry" />
        </mxCell>
        <mxCell id="hXMPYN5qLVU3_iHfUdJ2-235" value="" style="endArrow=none;html=1;rounded=0;" edge="1" parent="1" target="hXMPYN5qLVU3_iHfUdJ2-232">
          <mxGeometry width="50" height="50" relative="1" as="geometry">
            <mxPoint x="261.5" y="1920" as="sourcePoint" />
            <mxPoint x="317" y="1920" as="targetPoint" />
          </mxGeometry>
        </mxCell>
        <mxCell id="hXMPYN5qLVU3_iHfUdJ2-236" value="Continue to next destination" style="rounded=0;whiteSpace=wrap;html=1;" vertex="1" parent="1">
          <mxGeometry x="209" y="1980" width="110" height="40" as="geometry" />
        </mxCell>
        <mxCell id="hXMPYN5qLVU3_iHfUdJ2-237" value="" style="endArrow=none;html=1;rounded=0;exitX=0;exitY=1;exitDx=0;exitDy=0;" edge="1" parent="1" source="hXMPYN5qLVU3_iHfUdJ2-233">
          <mxGeometry width="50" height="50" relative="1" as="geometry">
            <mxPoint x="211.5" y="1860" as="sourcePoint" />
            <mxPoint x="261.5" y="1980" as="targetPoint" />
          </mxGeometry>
        </mxCell>
        <mxCell id="hXMPYN5qLVU3_iHfUdJ2-238" value="" style="endArrow=none;html=1;rounded=0;entryX=1;entryY=0.5;entryDx=0;entryDy=0;" edge="1" parent="1" target="hXMPYN5qLVU3_iHfUdJ2-232">
          <mxGeometry width="50" height="50" relative="1" as="geometry">
            <mxPoint x="461.5" y="1920" as="sourcePoint" />
            <mxPoint x="331.5" y="1920" as="targetPoint" />
          </mxGeometry>
        </mxCell>
        <mxCell id="hXMPYN5qLVU3_iHfUdJ2-239" value="" style="endArrow=none;html=1;rounded=0;exitX=0;exitY=1;exitDx=0;exitDy=0;" edge="1" parent="1">
          <mxGeometry width="50" height="50" relative="1" as="geometry">
            <mxPoint x="461.5" y="1920" as="sourcePoint" />
            <mxPoint x="461.5" y="1980" as="targetPoint" />
          </mxGeometry>
        </mxCell>
        <mxCell id="hXMPYN5qLVU3_iHfUdJ2-240" value="Eat" style="rounded=0;whiteSpace=wrap;html=1;" vertex="1" parent="1">
          <mxGeometry x="409" y="1980" width="110" height="40" as="geometry" />
        </mxCell>
        <mxCell id="hXMPYN5qLVU3_iHfUdJ2-241" value="" style="endArrow=none;html=1;rounded=0;" edge="1" parent="1">
          <mxGeometry width="50" height="50" relative="1" as="geometry">
            <mxPoint x="258.5" y="2080" as="sourcePoint" />
            <mxPoint x="314" y="2080" as="targetPoint" />
          </mxGeometry>
        </mxCell>
        <mxCell id="hXMPYN5qLVU3_iHfUdJ2-242" value="" style="endArrow=none;html=1;rounded=0;exitX=0;exitY=1;exitDx=0;exitDy=0;" edge="1" parent="1">
          <mxGeometry width="50" height="50" relative="1" as="geometry">
            <mxPoint x="259.07" y="2020" as="sourcePoint" />
            <mxPoint x="258.57" y="2080" as="targetPoint" />
          </mxGeometry>
        </mxCell>
        <mxCell id="hXMPYN5qLVU3_iHfUdJ2-243" value="" style="endArrow=none;html=1;rounded=0;exitX=0;exitY=1;exitDx=0;exitDy=0;" edge="1" parent="1">
          <mxGeometry width="50" height="50" relative="1" as="geometry">
            <mxPoint x="463.57" y="2020" as="sourcePoint" />
            <mxPoint x="463.57" y="2080" as="targetPoint" />
          </mxGeometry>
        </mxCell>
        <mxCell id="hXMPYN5qLVU3_iHfUdJ2-244" value="" style="endArrow=none;html=1;rounded=0;" edge="1" parent="1">
          <mxGeometry width="50" height="50" relative="1" as="geometry">
            <mxPoint x="409" y="2080" as="sourcePoint" />
            <mxPoint x="464.5" y="2080" as="targetPoint" />
          </mxGeometry>
        </mxCell>
        <mxCell id="hXMPYN5qLVU3_iHfUdJ2-245" value="Go back to Hotel" style="rounded=0;whiteSpace=wrap;html=1;" vertex="1" parent="1">
          <mxGeometry x="302" y="2060" width="110" height="40" as="geometry" />
        </mxCell>
        <mxCell id="hXMPYN5qLVU3_iHfUdJ2-246" value="&lt;font style=&quot;font-size: 10px;&quot;&gt;Am I tired&lt;/font&gt;" style="rhombus;whiteSpace=wrap;html=1;" vertex="1" parent="1">
          <mxGeometry x="318" y="2160" width="80" height="80" as="geometry" />
        </mxCell>
        <mxCell id="hXMPYN5qLVU3_iHfUdJ2-247" value="&lt;font color=&quot;#ff0000&quot;&gt;No&lt;/font&gt;" style="text;html=1;strokeColor=none;fillColor=none;align=center;verticalAlign=middle;whiteSpace=wrap;rounded=0;" vertex="1" parent="1">
          <mxGeometry x="260" y="2170" width="60" height="30" as="geometry" />
        </mxCell>
        <mxCell id="hXMPYN5qLVU3_iHfUdJ2-248" value="&lt;font color=&quot;#009900&quot;&gt;Yes&lt;/font&gt;" style="text;html=1;strokeColor=none;fillColor=none;align=center;verticalAlign=middle;whiteSpace=wrap;rounded=0;" vertex="1" parent="1">
          <mxGeometry x="398" y="2170" width="60" height="30" as="geometry" />
        </mxCell>
        <mxCell id="hXMPYN5qLVU3_iHfUdJ2-249" value="" style="endArrow=none;html=1;rounded=0;entryX=1;entryY=0.5;entryDx=0;entryDy=0;" edge="1" parent="1">
          <mxGeometry width="50" height="50" relative="1" as="geometry">
            <mxPoint x="480" y="2200" as="sourcePoint" />
            <mxPoint x="398" y="2200" as="targetPoint" />
          </mxGeometry>
        </mxCell>
        <mxCell id="hXMPYN5qLVU3_iHfUdJ2-250" value="" style="endArrow=none;html=1;rounded=0;" edge="1" parent="1">
          <mxGeometry width="50" height="50" relative="1" as="geometry">
            <mxPoint x="318" y="2200" as="sourcePoint" />
            <mxPoint x="240" y="2200" as="targetPoint" />
          </mxGeometry>
        </mxCell>
        <mxCell id="hXMPYN5qLVU3_iHfUdJ2-251" value="" style="endArrow=none;html=1;rounded=0;" edge="1" parent="1">
          <mxGeometry width="50" height="50" relative="1" as="geometry">
            <mxPoint x="240.18" y="2200" as="sourcePoint" />
            <mxPoint x="240" y="2260" as="targetPoint" />
          </mxGeometry>
        </mxCell>
        <mxCell id="hXMPYN5qLVU3_iHfUdJ2-252" value="" style="endArrow=none;html=1;rounded=0;exitX=0;exitY=1;exitDx=0;exitDy=0;" edge="1" parent="1">
          <mxGeometry width="50" height="50" relative="1" as="geometry">
            <mxPoint x="480.5" y="2200" as="sourcePoint" />
            <mxPoint x="480" y="2380" as="targetPoint" />
          </mxGeometry>
        </mxCell>
        <mxCell id="hXMPYN5qLVU3_iHfUdJ2-253" value="Watch movies" style="rounded=0;whiteSpace=wrap;html=1;" vertex="1" parent="1">
          <mxGeometry x="190" y="2260" width="110" height="40" as="geometry" />
        </mxCell>
        <mxCell id="hXMPYN5qLVU3_iHfUdJ2-254" value="Sleep" style="rounded=0;whiteSpace=wrap;html=1;" vertex="1" parent="1">
          <mxGeometry x="304" y="2360" width="110" height="40" as="geometry" />
        </mxCell>
        <mxCell id="hXMPYN5qLVU3_iHfUdJ2-255" value="" style="endArrow=none;html=1;rounded=0;" edge="1" parent="1">
          <mxGeometry width="50" height="50" relative="1" as="geometry">
            <mxPoint x="240.18" y="2300" as="sourcePoint" />
            <mxPoint x="240" y="2380" as="targetPoint" />
          </mxGeometry>
        </mxCell>
        <mxCell id="hXMPYN5qLVU3_iHfUdJ2-256" value="" style="endArrow=none;html=1;rounded=0;entryX=0;entryY=0.5;entryDx=0;entryDy=0;" edge="1" parent="1" target="hXMPYN5qLVU3_iHfUdJ2-254">
          <mxGeometry width="50" height="50" relative="1" as="geometry">
            <mxPoint x="240" y="2380" as="sourcePoint" />
            <mxPoint x="340" y="2280" as="targetPoint" />
          </mxGeometry>
        </mxCell>
        <mxCell id="hXMPYN5qLVU3_iHfUdJ2-257" value="" style="endArrow=none;html=1;rounded=0;exitX=1;exitY=0.5;exitDx=0;exitDy=0;" edge="1" parent="1" source="hXMPYN5qLVU3_iHfUdJ2-254">
          <mxGeometry width="50" height="50" relative="1" as="geometry">
            <mxPoint x="290" y="2330" as="sourcePoint" />
            <mxPoint x="480" y="2380" as="targetPoint" />
          </mxGeometry>
        </mxCell>
        <mxCell id="hXMPYN5qLVU3_iHfUdJ2-258" value="" style="endArrow=none;html=1;rounded=0;entryX=0.445;entryY=1.1;entryDx=0;entryDy=0;entryPerimeter=0;" edge="1" parent="1">
          <mxGeometry width="50" height="50" relative="1" as="geometry">
            <mxPoint x="362" y="2450" as="sourcePoint" />
            <mxPoint x="361.50000000000006" y="2400" as="targetPoint" />
          </mxGeometry>
        </mxCell>
        <mxCell id="hXMPYN5qLVU3_iHfUdJ2-259" value="Take a bath" style="rounded=0;whiteSpace=wrap;html=1;" vertex="1" parent="1">
          <mxGeometry x="430" y="2260" width="110" height="40" as="geometry" />
        </mxCell>
        <mxCell id="hXMPYN5qLVU3_iHfUdJ2-260" value="" style="endArrow=none;html=1;rounded=0;entryX=0.5;entryY=1;entryDx=0;entryDy=0;exitX=0.5;exitY=0;exitDx=0;exitDy=0;" edge="1" parent="1" source="hXMPYN5qLVU3_iHfUdJ2-246" target="hXMPYN5qLVU3_iHfUdJ2-245">
          <mxGeometry width="50" height="50" relative="1" as="geometry">
            <mxPoint x="360" y="2160" as="sourcePoint" />
            <mxPoint x="400" y="2370" as="targetPoint" />
          </mxGeometry>
        </mxCell>
        <mxCell id="hXMPYN5qLVU3_iHfUdJ2-261" value="" style="endArrow=none;html=1;rounded=0;entryX=0.445;entryY=1.1;entryDx=0;entryDy=0;entryPerimeter=0;" edge="1" parent="1">
          <mxGeometry width="50" height="50" relative="1" as="geometry">
            <mxPoint x="363.55" y="2556" as="sourcePoint" />
            <mxPoint x="363.50000000000006" y="2500" as="targetPoint" />
          </mxGeometry>
        </mxCell>
        <mxCell id="hXMPYN5qLVU3_iHfUdJ2-262" value="Eat breakfast" style="rounded=0;whiteSpace=wrap;html=1;" vertex="1" parent="1">
          <mxGeometry x="309" y="2540" width="110" height="40" as="geometry" />
        </mxCell>
        <mxCell id="hXMPYN5qLVU3_iHfUdJ2-263" value="" style="endArrow=none;html=1;rounded=0;entryX=0.445;entryY=1.1;entryDx=0;entryDy=0;entryPerimeter=0;" edge="1" parent="1">
          <mxGeometry width="50" height="50" relative="1" as="geometry">
            <mxPoint x="363.5" y="2630" as="sourcePoint" />
            <mxPoint x="363.50000000000006" y="2580" as="targetPoint" />
          </mxGeometry>
        </mxCell>
        <mxCell id="hXMPYN5qLVU3_iHfUdJ2-264" value="Go to Davao" style="rounded=0;whiteSpace=wrap;html=1;" vertex="1" parent="1">
          <mxGeometry x="309" y="2630" width="110" height="40" as="geometry" />
        </mxCell>
        <mxCell id="hXMPYN5qLVU3_iHfUdJ2-265" value="Wake up at 7am" style="shape=parallelogram;perimeter=parallelogramPerimeter;whiteSpace=wrap;html=1;fixedSize=1;" vertex="1" parent="1">
          <mxGeometry x="302" y="2450" width="120" height="60" as="geometry" />
        </mxCell>
        <mxCell id="hXMPYN5qLVU3_iHfUdJ2-266" value="Check time" style="shape=parallelogram;perimeter=parallelogramPerimeter;whiteSpace=wrap;html=1;fixedSize=1;" vertex="1" parent="1">
          <mxGeometry x="303.5" y="2720" width="120" height="60" as="geometry" />
        </mxCell>
        <mxCell id="hXMPYN5qLVU3_iHfUdJ2-267" value="" style="endArrow=none;html=1;rounded=0;entryX=0.445;entryY=1.1;entryDx=0;entryDy=0;entryPerimeter=0;" edge="1" parent="1">
          <mxGeometry width="50" height="50" relative="1" as="geometry">
            <mxPoint x="363" y="2720" as="sourcePoint" />
            <mxPoint x="363.00000000000006" y="2670" as="targetPoint" />
          </mxGeometry>
        </mxCell>
        <mxCell id="hXMPYN5qLVU3_iHfUdJ2-269" value="&lt;font style=&quot;font-size: 10px;&quot;&gt;is it already 12pm?&lt;/font&gt;" style="rhombus;whiteSpace=wrap;html=1;" vertex="1" parent="1">
          <mxGeometry x="322.25" y="2830" width="77.75" height="80" as="geometry" />
        </mxCell>
        <mxCell id="hXMPYN5qLVU3_iHfUdJ2-270" value="" style="endArrow=none;html=1;rounded=0;" edge="1" parent="1">
          <mxGeometry width="50" height="50" relative="1" as="geometry">
            <mxPoint x="400" y="2870" as="sourcePoint" />
            <mxPoint x="464.75" y="2870" as="targetPoint" />
            <Array as="points">
              <mxPoint x="400" y="2870" />
            </Array>
          </mxGeometry>
        </mxCell>
        <mxCell id="hXMPYN5qLVU3_iHfUdJ2-271" value="&lt;font color=&quot;#ff0000&quot;&gt;No&lt;/font&gt;" style="text;html=1;strokeColor=none;fillColor=none;align=center;verticalAlign=middle;whiteSpace=wrap;rounded=0;" vertex="1" parent="1">
          <mxGeometry x="257.25" y="2840" width="60" height="30" as="geometry" />
        </mxCell>
        <mxCell id="hXMPYN5qLVU3_iHfUdJ2-272" value="&lt;font color=&quot;#009900&quot;&gt;Yes&lt;/font&gt;" style="text;html=1;strokeColor=none;fillColor=none;align=center;verticalAlign=middle;whiteSpace=wrap;rounded=0;" vertex="1" parent="1">
          <mxGeometry x="401.5" y="2845" width="60" height="20" as="geometry" />
        </mxCell>
        <mxCell id="hXMPYN5qLVU3_iHfUdJ2-273" value="" style="endArrow=none;html=1;rounded=0;" edge="1" parent="1">
          <mxGeometry width="50" height="50" relative="1" as="geometry">
            <mxPoint x="464.75" y="2910" as="sourcePoint" />
            <mxPoint x="464.75" y="2870" as="targetPoint" />
          </mxGeometry>
        </mxCell>
        <mxCell id="hXMPYN5qLVU3_iHfUdJ2-274" value="Go to restaurant" style="rounded=0;whiteSpace=wrap;html=1;" vertex="1" parent="1">
          <mxGeometry x="207.25" y="2910" width="110" height="40" as="geometry" />
        </mxCell>
        <mxCell id="hXMPYN5qLVU3_iHfUdJ2-275" value="Go to Hotel" style="rounded=0;whiteSpace=wrap;html=1;" vertex="1" parent="1">
          <mxGeometry x="412.25" y="2905" width="110" height="40" as="geometry" />
        </mxCell>
        <mxCell id="hXMPYN5qLVU3_iHfUdJ2-277" value="" style="endArrow=none;html=1;rounded=0;" edge="1" parent="1">
          <mxGeometry width="50" height="50" relative="1" as="geometry">
            <mxPoint x="254.75" y="2910" as="sourcePoint" />
            <mxPoint x="254.75" y="2870" as="targetPoint" />
          </mxGeometry>
        </mxCell>
        <mxCell id="hXMPYN5qLVU3_iHfUdJ2-278" value="" style="endArrow=none;html=1;rounded=0;entryX=0;entryY=0.5;entryDx=0;entryDy=0;" edge="1" parent="1" target="hXMPYN5qLVU3_iHfUdJ2-269">
          <mxGeometry width="50" height="50" relative="1" as="geometry">
            <mxPoint x="254.75" y="2870" as="sourcePoint" />
            <mxPoint x="304.75" y="2870" as="targetPoint" />
          </mxGeometry>
        </mxCell>
        <mxCell id="hXMPYN5qLVU3_iHfUdJ2-279" value="Eat" style="rounded=0;whiteSpace=wrap;html=1;" vertex="1" parent="1">
          <mxGeometry x="206.25" y="2990" width="110" height="40" as="geometry" />
        </mxCell>
        <mxCell id="hXMPYN5qLVU3_iHfUdJ2-280" value="" style="endArrow=none;html=1;rounded=0;" edge="1" parent="1">
          <mxGeometry width="50" height="50" relative="1" as="geometry">
            <mxPoint x="254.75" y="2990" as="sourcePoint" />
            <mxPoint x="254.75" y="2950" as="targetPoint" />
          </mxGeometry>
        </mxCell>
        <mxCell id="hXMPYN5qLVU3_iHfUdJ2-281" value="Go to Hotel" style="rounded=0;whiteSpace=wrap;html=1;" vertex="1" parent="1">
          <mxGeometry x="204.75" y="3070" width="110" height="40" as="geometry" />
        </mxCell>
        <mxCell id="hXMPYN5qLVU3_iHfUdJ2-282" value="" style="endArrow=none;html=1;rounded=0;" edge="1" parent="1">
          <mxGeometry width="50" height="50" relative="1" as="geometry">
            <mxPoint x="254.75" y="3070" as="sourcePoint" />
            <mxPoint x="254.75" y="3030" as="targetPoint" />
          </mxGeometry>
        </mxCell>
        <mxCell id="hXMPYN5qLVU3_iHfUdJ2-283" style="edgeStyle=orthogonalEdgeStyle;rounded=0;orthogonalLoop=1;jettySize=auto;html=1;exitX=0.5;exitY=1;exitDx=0;exitDy=0;" edge="1" parent="1" source="hXMPYN5qLVU3_iHfUdJ2-281" target="hXMPYN5qLVU3_iHfUdJ2-281">
          <mxGeometry relative="1" as="geometry" />
        </mxCell>
        <mxCell id="hXMPYN5qLVU3_iHfUdJ2-284" value="Take a nap" style="rounded=0;whiteSpace=wrap;html=1;" vertex="1" parent="1">
          <mxGeometry x="304.75" y="3140" width="110" height="40" as="geometry" />
        </mxCell>
        <mxCell id="hXMPYN5qLVU3_iHfUdJ2-285" value="" style="endArrow=none;html=1;rounded=0;" edge="1" parent="1">
          <mxGeometry width="50" height="50" relative="1" as="geometry">
            <mxPoint x="254.75" y="3160" as="sourcePoint" />
            <mxPoint x="253.95" y="3110" as="targetPoint" />
          </mxGeometry>
        </mxCell>
        <mxCell id="hXMPYN5qLVU3_iHfUdJ2-286" value="Watch movie" style="rounded=0;whiteSpace=wrap;html=1;" vertex="1" parent="1">
          <mxGeometry x="412.25" y="2985" width="110" height="40" as="geometry" />
        </mxCell>
        <mxCell id="hXMPYN5qLVU3_iHfUdJ2-287" value="" style="endArrow=none;html=1;rounded=0;entryX=0.5;entryY=1;entryDx=0;entryDy=0;exitX=0.5;exitY=0;exitDx=0;exitDy=0;" edge="1" parent="1">
          <mxGeometry width="50" height="50" relative="1" as="geometry">
            <mxPoint x="459.7499999999999" y="2990" as="sourcePoint" />
            <mxPoint x="459.7499999999999" y="2950" as="targetPoint" />
          </mxGeometry>
        </mxCell>
        <mxCell id="hXMPYN5qLVU3_iHfUdJ2-288" value="" style="endArrow=none;html=1;rounded=0;entryX=0.5;entryY=1;entryDx=0;entryDy=0;exitX=1;exitY=0.5;exitDx=0;exitDy=0;" edge="1" parent="1" source="hXMPYN5qLVU3_iHfUdJ2-284">
          <mxGeometry width="50" height="50" relative="1" as="geometry">
            <mxPoint x="424.75" y="3160" as="sourcePoint" />
            <mxPoint x="459.7499999999999" y="3030" as="targetPoint" />
            <Array as="points">
              <mxPoint x="459.75" y="3160" />
            </Array>
          </mxGeometry>
        </mxCell>
        <mxCell id="hXMPYN5qLVU3_iHfUdJ2-289" value="" style="endArrow=none;html=1;rounded=0;entryX=0;entryY=0.5;entryDx=0;entryDy=0;" edge="1" parent="1" target="hXMPYN5qLVU3_iHfUdJ2-284">
          <mxGeometry width="50" height="50" relative="1" as="geometry">
            <mxPoint x="254.75" y="3160" as="sourcePoint" />
            <mxPoint x="374.75" y="3070" as="targetPoint" />
          </mxGeometry>
        </mxCell>
        <mxCell id="hXMPYN5qLVU3_iHfUdJ2-290" value="" style="endArrow=none;html=1;rounded=0;entryX=0.445;entryY=1.1;entryDx=0;entryDy=0;entryPerimeter=0;" edge="1" parent="1">
          <mxGeometry width="50" height="50" relative="1" as="geometry">
            <mxPoint x="362.07" y="2830" as="sourcePoint" />
            <mxPoint x="362.07000000000005" y="2780" as="targetPoint" />
          </mxGeometry>
        </mxCell>
        <mxCell id="hXMPYN5qLVU3_iHfUdJ2-291" value="Wake up at 5pm" style="shape=parallelogram;perimeter=parallelogramPerimeter;whiteSpace=wrap;html=1;fixedSize=1;" vertex="1" parent="1">
          <mxGeometry x="298" y="3240" width="120" height="60" as="geometry" />
        </mxCell>
        <mxCell id="hXMPYN5qLVU3_iHfUdJ2-292" value="" style="endArrow=none;html=1;rounded=0;entryX=0.5;entryY=1;entryDx=0;entryDy=0;exitX=0.5;exitY=0;exitDx=0;exitDy=0;" edge="1" parent="1">
          <mxGeometry width="50" height="50" relative="1" as="geometry">
            <mxPoint x="357.33" y="3370" as="sourcePoint" />
            <mxPoint x="358.33" y="3300" as="targetPoint" />
          </mxGeometry>
        </mxCell>
        <mxCell id="hXMPYN5qLVU3_iHfUdJ2-293" value="Eat" style="rounded=0;whiteSpace=wrap;html=1;" vertex="1" parent="1">
          <mxGeometry x="299" y="3370" width="110" height="40" as="geometry" />
        </mxCell>
        <mxCell id="hXMPYN5qLVU3_iHfUdJ2-294" value="Go to beach front" style="rounded=0;whiteSpace=wrap;html=1;" vertex="1" parent="1">
          <mxGeometry x="299" y="3480" width="110" height="40" as="geometry" />
        </mxCell>
        <mxCell id="hXMPYN5qLVU3_iHfUdJ2-295" value="" style="endArrow=none;html=1;rounded=0;entryX=0.5;entryY=1;entryDx=0;entryDy=0;exitX=0.5;exitY=0;exitDx=0;exitDy=0;" edge="1" parent="1">
          <mxGeometry width="50" height="50" relative="1" as="geometry">
            <mxPoint x="355.33" y="3480" as="sourcePoint" />
            <mxPoint x="356.33" y="3410" as="targetPoint" />
          </mxGeometry>
        </mxCell>
        <mxCell id="hXMPYN5qLVU3_iHfUdJ2-296" value="" style="endArrow=none;html=1;rounded=0;entryX=0.5;entryY=1;entryDx=0;entryDy=0;exitX=0.5;exitY=0;exitDx=0;exitDy=0;" edge="1" parent="1">
          <mxGeometry width="50" height="50" relative="1" as="geometry">
            <mxPoint x="353.33" y="3590" as="sourcePoint" />
            <mxPoint x="354.33" y="3520" as="targetPoint" />
          </mxGeometry>
        </mxCell>
        <mxCell id="hXMPYN5qLVU3_iHfUdJ2-297" value="Drink liquor" style="rounded=0;whiteSpace=wrap;html=1;" vertex="1" parent="1">
          <mxGeometry x="298" y="3580" width="110" height="40" as="geometry" />
        </mxCell>
        <mxCell id="hXMPYN5qLVU3_iHfUdJ2-298" value="" style="endArrow=none;html=1;rounded=0;entryX=0.5;entryY=1;entryDx=0;entryDy=0;exitX=0.5;exitY=0;exitDx=0;exitDy=0;" edge="1" parent="1" source="hXMPYN5qLVU3_iHfUdJ2-299">
          <mxGeometry width="50" height="50" relative="1" as="geometry">
            <mxPoint x="352.33" y="3690" as="sourcePoint" />
            <mxPoint x="353.33" y="3620" as="targetPoint" />
          </mxGeometry>
        </mxCell>
        <mxCell id="hXMPYN5qLVU3_iHfUdJ2-299" value="&lt;font style=&quot;font-size: 10px;&quot;&gt;Am I drunk?&lt;/font&gt;" style="rhombus;whiteSpace=wrap;html=1;" vertex="1" parent="1">
          <mxGeometry x="313.25" y="3690" width="80" height="80" as="geometry" />
        </mxCell>
        <mxCell id="hXMPYN5qLVU3_iHfUdJ2-300" value="" style="endArrow=none;html=1;rounded=0;" edge="1" parent="1">
          <mxGeometry width="50" height="50" relative="1" as="geometry">
            <mxPoint x="393.25" y="3730" as="sourcePoint" />
            <mxPoint x="461.75" y="3730" as="targetPoint" />
            <Array as="points">
              <mxPoint x="393.25" y="3730" />
            </Array>
          </mxGeometry>
        </mxCell>
        <mxCell id="hXMPYN5qLVU3_iHfUdJ2-301" value="&lt;font color=&quot;#ff0000&quot;&gt;No&lt;/font&gt;" style="text;html=1;strokeColor=none;fillColor=none;align=center;verticalAlign=middle;whiteSpace=wrap;rounded=0;" vertex="1" parent="1">
          <mxGeometry x="263.25" y="3690" width="60" height="30" as="geometry" />
        </mxCell>
        <mxCell id="hXMPYN5qLVU3_iHfUdJ2-302" value="&lt;font color=&quot;#009900&quot;&gt;Yes&lt;/font&gt;" style="text;html=1;strokeColor=none;fillColor=none;align=center;verticalAlign=middle;whiteSpace=wrap;rounded=0;" vertex="1" parent="1">
          <mxGeometry x="389.75" y="3690" width="60" height="20" as="geometry" />
        </mxCell>
        <mxCell id="hXMPYN5qLVU3_iHfUdJ2-303" value="" style="endArrow=none;html=1;rounded=0;" edge="1" parent="1">
          <mxGeometry width="50" height="50" relative="1" as="geometry">
            <mxPoint x="461.75" y="3770" as="sourcePoint" />
            <mxPoint x="461.75" y="3730" as="targetPoint" />
          </mxGeometry>
        </mxCell>
        <mxCell id="hXMPYN5qLVU3_iHfUdJ2-304" value="Continue drinking" style="rounded=0;whiteSpace=wrap;html=1;" vertex="1" parent="1">
          <mxGeometry x="204.25" y="3770" width="122.25" height="40" as="geometry" />
        </mxCell>
        <mxCell id="hXMPYN5qLVU3_iHfUdJ2-305" value="Rest&amp;nbsp;" style="rounded=0;whiteSpace=wrap;html=1;fontStyle=1" vertex="1" parent="1">
          <mxGeometry x="401.75" y="3770" width="110" height="40" as="geometry" />
        </mxCell>
        <mxCell id="hXMPYN5qLVU3_iHfUdJ2-306" value="" style="endArrow=none;html=1;rounded=0;" edge="1" parent="1">
          <mxGeometry width="50" height="50" relative="1" as="geometry">
            <mxPoint x="461.75" y="3770" as="sourcePoint" />
            <mxPoint x="461.75" y="3730" as="targetPoint" />
          </mxGeometry>
        </mxCell>
        <mxCell id="hXMPYN5qLVU3_iHfUdJ2-307" value="" style="endArrow=none;html=1;rounded=0;" edge="1" parent="1">
          <mxGeometry width="50" height="50" relative="1" as="geometry">
            <mxPoint x="251.75" y="3770" as="sourcePoint" />
            <mxPoint x="251.75" y="3730" as="targetPoint" />
          </mxGeometry>
        </mxCell>
        <mxCell id="hXMPYN5qLVU3_iHfUdJ2-308" value="" style="endArrow=none;html=1;rounded=0;entryX=0;entryY=0.5;entryDx=0;entryDy=0;" edge="1" parent="1" target="hXMPYN5qLVU3_iHfUdJ2-299">
          <mxGeometry width="50" height="50" relative="1" as="geometry">
            <mxPoint x="251.75" y="3730" as="sourcePoint" />
            <mxPoint x="301.75" y="3730" as="targetPoint" />
          </mxGeometry>
        </mxCell>
        <mxCell id="hXMPYN5qLVU3_iHfUdJ2-309" value="" style="endArrow=none;html=1;rounded=0;" edge="1" parent="1">
          <mxGeometry width="50" height="50" relative="1" as="geometry">
            <mxPoint x="254" y="3880" as="sourcePoint" />
            <mxPoint x="254" y="3810" as="targetPoint" />
          </mxGeometry>
        </mxCell>
        <mxCell id="hXMPYN5qLVU3_iHfUdJ2-310" value="" style="endArrow=none;html=1;rounded=0;entryX=0.421;entryY=0.978;entryDx=0;entryDy=0;entryPerimeter=0;" edge="1" parent="1">
          <mxGeometry width="50" height="50" relative="1" as="geometry">
            <mxPoint x="464" y="3880" as="sourcePoint" />
            <mxPoint x="464" y="3810" as="targetPoint" />
          </mxGeometry>
        </mxCell>
        <mxCell id="hXMPYN5qLVU3_iHfUdJ2-311" value="Go back to hotel" style="rounded=0;whiteSpace=wrap;html=1;" vertex="1" parent="1">
          <mxGeometry x="299" y="3860" width="110" height="40" as="geometry" />
        </mxCell>
        <mxCell id="hXMPYN5qLVU3_iHfUdJ2-312" style="edgeStyle=orthogonalEdgeStyle;rounded=0;orthogonalLoop=1;jettySize=auto;html=1;exitX=0.5;exitY=1;exitDx=0;exitDy=0;" edge="1" parent="1" source="hXMPYN5qLVU3_iHfUdJ2-311" target="hXMPYN5qLVU3_iHfUdJ2-311">
          <mxGeometry relative="1" as="geometry" />
        </mxCell>
        <mxCell id="hXMPYN5qLVU3_iHfUdJ2-313" value="" style="endArrow=none;html=1;rounded=0;entryX=0;entryY=0.5;entryDx=0;entryDy=0;" edge="1" parent="1" target="hXMPYN5qLVU3_iHfUdJ2-311">
          <mxGeometry width="50" height="50" relative="1" as="geometry">
            <mxPoint x="254" y="3880" as="sourcePoint" />
            <mxPoint x="294" y="3880" as="targetPoint" />
          </mxGeometry>
        </mxCell>
        <mxCell id="hXMPYN5qLVU3_iHfUdJ2-314" value="" style="endArrow=none;html=1;rounded=0;exitX=1;exitY=0.5;exitDx=0;exitDy=0;" edge="1" parent="1" source="hXMPYN5qLVU3_iHfUdJ2-311">
          <mxGeometry width="50" height="50" relative="1" as="geometry">
            <mxPoint x="415.5" y="3879.7799999999997" as="sourcePoint" />
            <mxPoint x="464" y="3880" as="targetPoint" />
          </mxGeometry>
        </mxCell>
        <mxCell id="hXMPYN5qLVU3_iHfUdJ2-315" value="" style="endArrow=none;html=1;rounded=0;entryX=0.5;entryY=1;entryDx=0;entryDy=0;" edge="1" parent="1" target="hXMPYN5qLVU3_iHfUdJ2-311">
          <mxGeometry width="50" height="50" relative="1" as="geometry">
            <mxPoint x="354" y="3940" as="sourcePoint" />
            <mxPoint x="284" y="3950" as="targetPoint" />
          </mxGeometry>
        </mxCell>
        <mxCell id="hXMPYN5qLVU3_iHfUdJ2-316" value="Sleep" style="rounded=0;whiteSpace=wrap;html=1;" vertex="1" parent="1">
          <mxGeometry x="298" y="3940" width="110" height="40" as="geometry" />
        </mxCell>
        <mxCell id="hXMPYN5qLVU3_iHfUdJ2-317" value="" style="endArrow=none;html=1;rounded=0;entryX=0.5;entryY=1;entryDx=0;entryDy=0;exitX=0.5;exitY=0;exitDx=0;exitDy=0;" edge="1" parent="1" source="hXMPYN5qLVU3_iHfUdJ2-291" target="hXMPYN5qLVU3_iHfUdJ2-284">
          <mxGeometry width="50" height="50" relative="1" as="geometry">
            <mxPoint x="390" y="3410" as="sourcePoint" />
            <mxPoint x="440" y="3360" as="targetPoint" />
          </mxGeometry>
        </mxCell>
        <mxCell id="hXMPYN5qLVU3_iHfUdJ2-319" value="" style="endArrow=none;html=1;rounded=0;entryX=0.5;entryY=1;entryDx=0;entryDy=0;" edge="1" parent="1">
          <mxGeometry width="50" height="50" relative="1" as="geometry">
            <mxPoint x="353.47" y="4020" as="sourcePoint" />
            <mxPoint x="353.47" y="3980" as="targetPoint" />
          </mxGeometry>
        </mxCell>
        <mxCell id="hXMPYN5qLVU3_iHfUdJ2-320" value="" style="endArrow=none;html=1;rounded=0;entryX=0.445;entryY=1.1;entryDx=0;entryDy=0;entryPerimeter=0;" edge="1" parent="1" source="hXMPYN5qLVU3_iHfUdJ2-321">
          <mxGeometry width="50" height="50" relative="1" as="geometry">
            <mxPoint x="352.52000000000004" y="4126" as="sourcePoint" />
            <mxPoint x="352.4700000000001" y="4070" as="targetPoint" />
          </mxGeometry>
        </mxCell>
        <mxCell id="hXMPYN5qLVU3_iHfUdJ2-321" value="Eat breakfast" style="rounded=0;whiteSpace=wrap;html=1;" vertex="1" parent="1">
          <mxGeometry x="298" y="4120" width="110" height="40" as="geometry" />
        </mxCell>
        <mxCell id="hXMPYN5qLVU3_iHfUdJ2-322" value="" style="endArrow=none;html=1;rounded=0;" edge="1" parent="1">
          <mxGeometry width="50" height="50" relative="1" as="geometry">
            <mxPoint x="351.47" y="4200" as="sourcePoint" />
            <mxPoint x="351" y="4160" as="targetPoint" />
          </mxGeometry>
        </mxCell>
        <mxCell id="hXMPYN5qLVU3_iHfUdJ2-323" value="Go to Mount Apo" style="rounded=0;whiteSpace=wrap;html=1;" vertex="1" parent="1">
          <mxGeometry x="301.5" y="4200" width="110" height="40" as="geometry" />
        </mxCell>
        <mxCell id="hXMPYN5qLVU3_iHfUdJ2-324" value="" style="endArrow=none;html=1;rounded=0;entryX=0.445;entryY=1.1;entryDx=0;entryDy=0;entryPerimeter=0;" edge="1" parent="1">
          <mxGeometry width="50" height="50" relative="1" as="geometry">
            <mxPoint x="351.47" y="4290" as="sourcePoint" />
            <mxPoint x="351.4700000000001" y="4240" as="targetPoint" />
          </mxGeometry>
        </mxCell>
        <mxCell id="hXMPYN5qLVU3_iHfUdJ2-325" value="&lt;font style=&quot;font-size: 10px;&quot;&gt;Am I hungry?&lt;/font&gt;" style="rhombus;whiteSpace=wrap;html=1;" vertex="1" parent="1">
          <mxGeometry x="310.5" y="4290" width="80" height="80" as="geometry" />
        </mxCell>
        <mxCell id="hXMPYN5qLVU3_iHfUdJ2-326" value="&lt;font color=&quot;#ff0000&quot;&gt;No&lt;/font&gt;" style="text;html=1;strokeColor=none;fillColor=none;align=center;verticalAlign=middle;whiteSpace=wrap;rounded=0;" vertex="1" parent="1">
          <mxGeometry x="247.5" y="4300" width="60" height="30" as="geometry" />
        </mxCell>
        <mxCell id="hXMPYN5qLVU3_iHfUdJ2-327" value="&lt;font color=&quot;#009900&quot;&gt;Yes&lt;/font&gt;" style="text;html=1;strokeColor=none;fillColor=none;align=center;verticalAlign=middle;whiteSpace=wrap;rounded=0;" vertex="1" parent="1">
          <mxGeometry x="397.5" y="4290" width="60" height="30" as="geometry" />
        </mxCell>
        <mxCell id="hXMPYN5qLVU3_iHfUdJ2-328" value="" style="endArrow=none;html=1;rounded=0;entryX=0;entryY=0.5;entryDx=0;entryDy=0;" edge="1" parent="1" target="hXMPYN5qLVU3_iHfUdJ2-325">
          <mxGeometry width="50" height="50" relative="1" as="geometry">
            <mxPoint x="247.5" y="4330" as="sourcePoint" />
            <mxPoint x="297.5" y="4040" as="targetPoint" />
          </mxGeometry>
        </mxCell>
        <mxCell id="hXMPYN5qLVU3_iHfUdJ2-329" value="" style="endArrow=none;html=1;rounded=0;exitX=0;exitY=1;exitDx=0;exitDy=0;" edge="1" parent="1" source="hXMPYN5qLVU3_iHfUdJ2-326">
          <mxGeometry width="50" height="50" relative="1" as="geometry">
            <mxPoint x="197.5" y="4270" as="sourcePoint" />
            <mxPoint x="247.5" y="4390" as="targetPoint" />
          </mxGeometry>
        </mxCell>
        <mxCell id="hXMPYN5qLVU3_iHfUdJ2-330" value="" style="endArrow=none;html=1;rounded=0;entryX=1;entryY=0.5;entryDx=0;entryDy=0;" edge="1" parent="1" target="hXMPYN5qLVU3_iHfUdJ2-325">
          <mxGeometry width="50" height="50" relative="1" as="geometry">
            <mxPoint x="447.5" y="4330" as="sourcePoint" />
            <mxPoint x="317.5" y="4330" as="targetPoint" />
          </mxGeometry>
        </mxCell>
        <mxCell id="hXMPYN5qLVU3_iHfUdJ2-331" value="" style="endArrow=none;html=1;rounded=0;exitX=0;exitY=1;exitDx=0;exitDy=0;" edge="1" parent="1">
          <mxGeometry width="50" height="50" relative="1" as="geometry">
            <mxPoint x="447.5" y="4330" as="sourcePoint" />
            <mxPoint x="447.5" y="4390" as="targetPoint" />
          </mxGeometry>
        </mxCell>
        <mxCell id="hXMPYN5qLVU3_iHfUdJ2-332" value="Eat" style="rounded=0;whiteSpace=wrap;html=1;" vertex="1" parent="1">
          <mxGeometry x="397.5" y="4390" width="110" height="40" as="geometry" />
        </mxCell>
        <mxCell id="hXMPYN5qLVU3_iHfUdJ2-333" value="" style="endArrow=none;html=1;rounded=0;exitX=0;exitY=1;exitDx=0;exitDy=0;" edge="1" parent="1">
          <mxGeometry width="50" height="50" relative="1" as="geometry">
            <mxPoint x="447.5" y="4430" as="sourcePoint" />
            <mxPoint x="447.5" y="4490" as="targetPoint" />
          </mxGeometry>
        </mxCell>
        <mxCell id="hXMPYN5qLVU3_iHfUdJ2-334" value="" style="endArrow=none;html=1;rounded=0;exitX=0;exitY=1;exitDx=0;exitDy=0;" edge="1" parent="1">
          <mxGeometry width="50" height="50" relative="1" as="geometry">
            <mxPoint x="246.25" y="4430" as="sourcePoint" />
            <mxPoint x="246.25" y="4490" as="targetPoint" />
          </mxGeometry>
        </mxCell>
        <mxCell id="hXMPYN5qLVU3_iHfUdJ2-335" value="" style="endArrow=none;html=1;rounded=0;" edge="1" parent="1">
          <mxGeometry width="50" height="50" relative="1" as="geometry">
            <mxPoint x="247.5" y="4490" as="sourcePoint" />
            <mxPoint x="307.5" y="4490" as="targetPoint" />
          </mxGeometry>
        </mxCell>
        <mxCell id="hXMPYN5qLVU3_iHfUdJ2-336" value="" style="endArrow=none;html=1;rounded=0;" edge="1" parent="1">
          <mxGeometry width="50" height="50" relative="1" as="geometry">
            <mxPoint x="387.5" y="4490" as="sourcePoint" />
            <mxPoint x="447.5" y="4490" as="targetPoint" />
          </mxGeometry>
        </mxCell>
        <mxCell id="hXMPYN5qLVU3_iHfUdJ2-337" value="D&#39;Bone Collector Museum" style="rounded=0;whiteSpace=wrap;html=1;" vertex="1" parent="1">
          <mxGeometry x="297.5" y="4470" width="110" height="40" as="geometry" />
        </mxCell>
        <mxCell id="hXMPYN5qLVU3_iHfUdJ2-338" value="Wake up at 7" style="shape=parallelogram;perimeter=parallelogramPerimeter;whiteSpace=wrap;html=1;fixedSize=1;" vertex="1" parent="1">
          <mxGeometry x="292" y="4020" width="120" height="60" as="geometry" />
        </mxCell>
        <mxCell id="hXMPYN5qLVU3_iHfUdJ2-339" value="" style="endArrow=none;html=1;rounded=0;entryX=0.5;entryY=1;entryDx=0;entryDy=0;" edge="1" parent="1">
          <mxGeometry width="50" height="50" relative="1" as="geometry">
            <mxPoint x="349" y="4580" as="sourcePoint" />
            <mxPoint x="349.2499999999999" y="4510" as="targetPoint" />
          </mxGeometry>
        </mxCell>
        <mxCell id="hXMPYN5qLVU3_iHfUdJ2-340" value="&lt;font style=&quot;font-size: 10px;&quot;&gt;Am I hungry?&lt;/font&gt;" style="rhombus;whiteSpace=wrap;html=1;" vertex="1" parent="1">
          <mxGeometry x="309" y="4580" width="80" height="80" as="geometry" />
        </mxCell>
        <mxCell id="hXMPYN5qLVU3_iHfUdJ2-341" value="&lt;font color=&quot;#ff0000&quot;&gt;No&lt;/font&gt;" style="text;html=1;strokeColor=none;fillColor=none;align=center;verticalAlign=middle;whiteSpace=wrap;rounded=0;" vertex="1" parent="1">
          <mxGeometry x="251.5" y="4590" width="60" height="30" as="geometry" />
        </mxCell>
        <mxCell id="hXMPYN5qLVU3_iHfUdJ2-342" value="&lt;font color=&quot;#009900&quot;&gt;Yes&lt;/font&gt;" style="text;html=1;strokeColor=none;fillColor=none;align=center;verticalAlign=middle;whiteSpace=wrap;rounded=0;" vertex="1" parent="1">
          <mxGeometry x="387" y="4590" width="60" height="30" as="geometry" />
        </mxCell>
        <mxCell id="hXMPYN5qLVU3_iHfUdJ2-343" value="" style="endArrow=none;html=1;rounded=0;" edge="1" parent="1" target="hXMPYN5qLVU3_iHfUdJ2-340">
          <mxGeometry width="50" height="50" relative="1" as="geometry">
            <mxPoint x="251.5" y="4620" as="sourcePoint" />
            <mxPoint x="307" y="4620" as="targetPoint" />
          </mxGeometry>
        </mxCell>
        <mxCell id="hXMPYN5qLVU3_iHfUdJ2-344" value="" style="endArrow=none;html=1;rounded=0;exitX=0;exitY=1;exitDx=0;exitDy=0;" edge="1" parent="1" source="hXMPYN5qLVU3_iHfUdJ2-341">
          <mxGeometry width="50" height="50" relative="1" as="geometry">
            <mxPoint x="201.5" y="4560" as="sourcePoint" />
            <mxPoint x="251.5" y="4680" as="targetPoint" />
          </mxGeometry>
        </mxCell>
        <mxCell id="hXMPYN5qLVU3_iHfUdJ2-345" value="" style="endArrow=none;html=1;rounded=0;entryX=1;entryY=0.5;entryDx=0;entryDy=0;" edge="1" parent="1" target="hXMPYN5qLVU3_iHfUdJ2-340">
          <mxGeometry width="50" height="50" relative="1" as="geometry">
            <mxPoint x="451.5" y="4620" as="sourcePoint" />
            <mxPoint x="321.5" y="4620" as="targetPoint" />
          </mxGeometry>
        </mxCell>
        <mxCell id="hXMPYN5qLVU3_iHfUdJ2-346" value="" style="endArrow=none;html=1;rounded=0;exitX=0;exitY=1;exitDx=0;exitDy=0;" edge="1" parent="1">
          <mxGeometry width="50" height="50" relative="1" as="geometry">
            <mxPoint x="451.5" y="4620" as="sourcePoint" />
            <mxPoint x="451.5" y="4680" as="targetPoint" />
          </mxGeometry>
        </mxCell>
        <mxCell id="hXMPYN5qLVU3_iHfUdJ2-347" value="Eat" style="rounded=0;whiteSpace=wrap;html=1;" vertex="1" parent="1">
          <mxGeometry x="399" y="4680" width="110" height="40" as="geometry" />
        </mxCell>
        <mxCell id="hXMPYN5qLVU3_iHfUdJ2-348" value="" style="endArrow=none;html=1;rounded=0;" edge="1" parent="1">
          <mxGeometry width="50" height="50" relative="1" as="geometry">
            <mxPoint x="250" y="4780" as="sourcePoint" />
            <mxPoint x="304" y="4780" as="targetPoint" />
          </mxGeometry>
        </mxCell>
        <mxCell id="hXMPYN5qLVU3_iHfUdJ2-349" value="" style="endArrow=none;html=1;rounded=0;exitX=0;exitY=1;exitDx=0;exitDy=0;" edge="1" parent="1">
          <mxGeometry width="50" height="50" relative="1" as="geometry">
            <mxPoint x="250.5" y="4720" as="sourcePoint" />
            <mxPoint x="250" y="4780" as="targetPoint" />
          </mxGeometry>
        </mxCell>
        <mxCell id="hXMPYN5qLVU3_iHfUdJ2-350" value="" style="endArrow=none;html=1;rounded=0;exitX=0;exitY=1;exitDx=0;exitDy=0;" edge="1" parent="1">
          <mxGeometry width="50" height="50" relative="1" as="geometry">
            <mxPoint x="453.57" y="4720" as="sourcePoint" />
            <mxPoint x="453.57" y="4780" as="targetPoint" />
          </mxGeometry>
        </mxCell>
        <mxCell id="hXMPYN5qLVU3_iHfUdJ2-351" value="" style="endArrow=none;html=1;rounded=0;" edge="1" parent="1">
          <mxGeometry width="50" height="50" relative="1" as="geometry">
            <mxPoint x="399" y="4780" as="sourcePoint" />
            <mxPoint x="454.5" y="4780" as="targetPoint" />
          </mxGeometry>
        </mxCell>
        <mxCell id="hXMPYN5qLVU3_iHfUdJ2-352" value="Go back to Hotel" style="rounded=0;whiteSpace=wrap;html=1;" vertex="1" parent="1">
          <mxGeometry x="292" y="4760" width="110" height="40" as="geometry" />
        </mxCell>
        <mxCell id="hXMPYN5qLVU3_iHfUdJ2-353" value="&lt;font style=&quot;font-size: 10px;&quot;&gt;Am I tired&lt;/font&gt;" style="rhombus;whiteSpace=wrap;html=1;" vertex="1" parent="1">
          <mxGeometry x="308" y="4860" width="80" height="80" as="geometry" />
        </mxCell>
        <mxCell id="hXMPYN5qLVU3_iHfUdJ2-354" value="&lt;font color=&quot;#ff0000&quot;&gt;No&lt;/font&gt;" style="text;html=1;strokeColor=none;fillColor=none;align=center;verticalAlign=middle;whiteSpace=wrap;rounded=0;" vertex="1" parent="1">
          <mxGeometry x="250" y="4870" width="60" height="30" as="geometry" />
        </mxCell>
        <mxCell id="hXMPYN5qLVU3_iHfUdJ2-355" value="&lt;font color=&quot;#009900&quot;&gt;Yes&lt;/font&gt;" style="text;html=1;strokeColor=none;fillColor=none;align=center;verticalAlign=middle;whiteSpace=wrap;rounded=0;" vertex="1" parent="1">
          <mxGeometry x="388" y="4870" width="60" height="30" as="geometry" />
        </mxCell>
        <mxCell id="hXMPYN5qLVU3_iHfUdJ2-356" value="" style="endArrow=none;html=1;rounded=0;entryX=1;entryY=0.5;entryDx=0;entryDy=0;" edge="1" parent="1">
          <mxGeometry width="50" height="50" relative="1" as="geometry">
            <mxPoint x="470" y="4900" as="sourcePoint" />
            <mxPoint x="388" y="4900" as="targetPoint" />
          </mxGeometry>
        </mxCell>
        <mxCell id="hXMPYN5qLVU3_iHfUdJ2-357" value="" style="endArrow=none;html=1;rounded=0;" edge="1" parent="1">
          <mxGeometry width="50" height="50" relative="1" as="geometry">
            <mxPoint x="308" y="4900" as="sourcePoint" />
            <mxPoint x="230" y="4900" as="targetPoint" />
          </mxGeometry>
        </mxCell>
        <mxCell id="hXMPYN5qLVU3_iHfUdJ2-358" value="" style="endArrow=none;html=1;rounded=0;" edge="1" parent="1">
          <mxGeometry width="50" height="50" relative="1" as="geometry">
            <mxPoint x="230.18" y="4900" as="sourcePoint" />
            <mxPoint x="230" y="4960" as="targetPoint" />
          </mxGeometry>
        </mxCell>
        <mxCell id="hXMPYN5qLVU3_iHfUdJ2-359" value="" style="endArrow=none;html=1;rounded=0;exitX=0;exitY=1;exitDx=0;exitDy=0;" edge="1" parent="1">
          <mxGeometry width="50" height="50" relative="1" as="geometry">
            <mxPoint x="470.5" y="4900" as="sourcePoint" />
            <mxPoint x="470" y="5080" as="targetPoint" />
          </mxGeometry>
        </mxCell>
        <mxCell id="hXMPYN5qLVU3_iHfUdJ2-360" value="Sleep" style="rounded=0;whiteSpace=wrap;html=1;" vertex="1" parent="1">
          <mxGeometry x="294" y="5060" width="110" height="40" as="geometry" />
        </mxCell>
        <mxCell id="hXMPYN5qLVU3_iHfUdJ2-361" value="" style="endArrow=none;html=1;rounded=0;" edge="1" parent="1">
          <mxGeometry width="50" height="50" relative="1" as="geometry">
            <mxPoint x="230.18" y="5000" as="sourcePoint" />
            <mxPoint x="230" y="5080" as="targetPoint" />
          </mxGeometry>
        </mxCell>
        <mxCell id="hXMPYN5qLVU3_iHfUdJ2-362" value="" style="endArrow=none;html=1;rounded=0;entryX=0;entryY=0.5;entryDx=0;entryDy=0;" edge="1" parent="1" target="hXMPYN5qLVU3_iHfUdJ2-360">
          <mxGeometry width="50" height="50" relative="1" as="geometry">
            <mxPoint x="230" y="5080" as="sourcePoint" />
            <mxPoint x="330" y="4980" as="targetPoint" />
          </mxGeometry>
        </mxCell>
        <mxCell id="hXMPYN5qLVU3_iHfUdJ2-363" value="" style="endArrow=none;html=1;rounded=0;exitX=1;exitY=0.5;exitDx=0;exitDy=0;" edge="1" parent="1" source="hXMPYN5qLVU3_iHfUdJ2-360">
          <mxGeometry width="50" height="50" relative="1" as="geometry">
            <mxPoint x="280" y="5030" as="sourcePoint" />
            <mxPoint x="470" y="5080" as="targetPoint" />
          </mxGeometry>
        </mxCell>
        <mxCell id="hXMPYN5qLVU3_iHfUdJ2-364" value="" style="endArrow=none;html=1;rounded=0;entryX=0.445;entryY=1.1;entryDx=0;entryDy=0;entryPerimeter=0;" edge="1" parent="1">
          <mxGeometry width="50" height="50" relative="1" as="geometry">
            <mxPoint x="352" y="5150" as="sourcePoint" />
            <mxPoint x="351.50000000000006" y="5100" as="targetPoint" />
          </mxGeometry>
        </mxCell>
        <mxCell id="hXMPYN5qLVU3_iHfUdJ2-365" value="Take a bath" style="rounded=0;whiteSpace=wrap;html=1;" vertex="1" parent="1">
          <mxGeometry x="420" y="4960" width="110" height="40" as="geometry" />
        </mxCell>
        <mxCell id="hXMPYN5qLVU3_iHfUdJ2-366" value="" style="endArrow=none;html=1;rounded=0;entryX=0.5;entryY=1;entryDx=0;entryDy=0;exitX=0.5;exitY=0;exitDx=0;exitDy=0;" edge="1" parent="1" source="hXMPYN5qLVU3_iHfUdJ2-353" target="hXMPYN5qLVU3_iHfUdJ2-352">
          <mxGeometry width="50" height="50" relative="1" as="geometry">
            <mxPoint x="350" y="4860" as="sourcePoint" />
            <mxPoint x="390" y="5070" as="targetPoint" />
          </mxGeometry>
        </mxCell>
        <mxCell id="hXMPYN5qLVU3_iHfUdJ2-367" value="" style="endArrow=none;html=1;rounded=0;entryX=0.445;entryY=1.1;entryDx=0;entryDy=0;entryPerimeter=0;" edge="1" parent="1">
          <mxGeometry width="50" height="50" relative="1" as="geometry">
            <mxPoint x="353.55" y="5256" as="sourcePoint" />
            <mxPoint x="353.50000000000006" y="5200" as="targetPoint" />
          </mxGeometry>
        </mxCell>
        <mxCell id="hXMPYN5qLVU3_iHfUdJ2-368" value="Eat breakfast" style="rounded=0;whiteSpace=wrap;html=1;" vertex="1" parent="1">
          <mxGeometry x="299" y="5240" width="110" height="40" as="geometry" />
        </mxCell>
        <mxCell id="hXMPYN5qLVU3_iHfUdJ2-369" value="Wake up at 7am" style="shape=parallelogram;perimeter=parallelogramPerimeter;whiteSpace=wrap;html=1;fixedSize=1;" vertex="1" parent="1">
          <mxGeometry x="292" y="5150" width="120" height="60" as="geometry" />
        </mxCell>
        <mxCell id="hXMPYN5qLVU3_iHfUdJ2-372" value="Go to next destination" style="rounded=0;whiteSpace=wrap;html=1;" vertex="1" parent="1">
          <mxGeometry x="194.75" y="4390" width="110" height="40" as="geometry" />
        </mxCell>
        <mxCell id="hXMPYN5qLVU3_iHfUdJ2-373" value="Go to next destination" style="rounded=0;whiteSpace=wrap;html=1;" vertex="1" parent="1">
          <mxGeometry x="201.5" y="4680" width="110" height="40" as="geometry" />
        </mxCell>
        <mxCell id="hXMPYN5qLVU3_iHfUdJ2-374" value="Use social media apps" style="rounded=0;whiteSpace=wrap;html=1;" vertex="1" parent="1">
          <mxGeometry x="180" y="4960" width="110" height="40" as="geometry" />
        </mxCell>
        <mxCell id="hXMPYN5qLVU3_iHfUdJ2-375" value="" style="endArrow=none;html=1;rounded=0;entryX=0.445;entryY=1.1;entryDx=0;entryDy=0;entryPerimeter=0;" edge="1" parent="1">
          <mxGeometry width="50" height="50" relative="1" as="geometry">
            <mxPoint x="353.22" y="5330" as="sourcePoint" />
            <mxPoint x="352.7200000000001" y="5280" as="targetPoint" />
          </mxGeometry>
        </mxCell>
        <mxCell id="hXMPYN5qLVU3_iHfUdJ2-376" value="Pack up things" style="rounded=0;whiteSpace=wrap;html=1;" vertex="1" parent="1">
          <mxGeometry x="300.5" y="5330" width="110" height="40" as="geometry" />
        </mxCell>
        <mxCell id="hXMPYN5qLVU3_iHfUdJ2-379" value="" style="endArrow=none;html=1;rounded=0;" edge="1" parent="1">
          <mxGeometry width="50" height="50" relative="1" as="geometry">
            <mxPoint x="354" y="5440" as="sourcePoint" />
            <mxPoint x="354" y="5370" as="targetPoint" />
          </mxGeometry>
        </mxCell>
        <mxCell id="hXMPYN5qLVU3_iHfUdJ2-382" value="&lt;font style=&quot;font-size: 9px;&quot;&gt;Do i have extra money?&lt;/font&gt;" style="rhombus;whiteSpace=wrap;html=1;fontSize=11;align=center;" vertex="1" parent="1">
          <mxGeometry x="314" y="5440" width="80" height="80" as="geometry" />
        </mxCell>
        <mxCell id="hXMPYN5qLVU3_iHfUdJ2-383" value="&lt;font color=&quot;#ff0000&quot;&gt;No&lt;/font&gt;" style="text;html=1;strokeColor=none;fillColor=none;align=center;verticalAlign=middle;whiteSpace=wrap;rounded=0;" vertex="1" parent="1">
          <mxGeometry x="250.5" y="5450" width="60" height="30" as="geometry" />
        </mxCell>
        <mxCell id="hXMPYN5qLVU3_iHfUdJ2-386" value="&lt;font color=&quot;#009900&quot;&gt;Yes&lt;/font&gt;" style="text;html=1;strokeColor=none;fillColor=none;align=center;verticalAlign=middle;whiteSpace=wrap;rounded=0;" vertex="1" parent="1">
          <mxGeometry x="397.5" y="5450" width="60" height="30" as="geometry" />
        </mxCell>
        <mxCell id="hXMPYN5qLVU3_iHfUdJ2-387" value="" style="endArrow=none;html=1;rounded=0;entryX=1;entryY=1;entryDx=0;entryDy=0;exitX=0.25;exitY=1;exitDx=0;exitDy=0;" edge="1" parent="1">
          <mxGeometry width="50" height="50" relative="1" as="geometry">
            <mxPoint x="269.25" y="5480" as="sourcePoint" />
            <mxPoint x="314.25" y="5480" as="targetPoint" />
          </mxGeometry>
        </mxCell>
        <mxCell id="hXMPYN5qLVU3_iHfUdJ2-388" value="" style="endArrow=none;html=1;rounded=0;entryX=1;entryY=1;entryDx=0;entryDy=0;exitX=0.25;exitY=1;exitDx=0;exitDy=0;" edge="1" parent="1">
          <mxGeometry width="50" height="50" relative="1" as="geometry">
            <mxPoint x="394.5" y="5480" as="sourcePoint" />
            <mxPoint x="439.5" y="5480" as="targetPoint" />
          </mxGeometry>
        </mxCell>
        <mxCell id="hXMPYN5qLVU3_iHfUdJ2-389" value="" style="endArrow=none;html=1;rounded=0;" edge="1" parent="1">
          <mxGeometry width="50" height="50" relative="1" as="geometry">
            <mxPoint x="440" y="5550" as="sourcePoint" />
            <mxPoint x="440" y="5480" as="targetPoint" />
          </mxGeometry>
        </mxCell>
        <mxCell id="hXMPYN5qLVU3_iHfUdJ2-390" value="" style="endArrow=none;html=1;rounded=0;" edge="1" parent="1">
          <mxGeometry width="50" height="50" relative="1" as="geometry">
            <mxPoint x="271" y="5550" as="sourcePoint" />
            <mxPoint x="271.07" y="5480" as="targetPoint" />
          </mxGeometry>
        </mxCell>
        <mxCell id="hXMPYN5qLVU3_iHfUdJ2-394" value="Buy local delicacies" style="rounded=0;whiteSpace=wrap;html=1;" vertex="1" parent="1">
          <mxGeometry x="385" y="5550" width="110" height="40" as="geometry" />
        </mxCell>
        <mxCell id="hXMPYN5qLVU3_iHfUdJ2-395" value="go window shopping" style="rounded=0;whiteSpace=wrap;html=1;" vertex="1" parent="1">
          <mxGeometry x="219.25" y="5550" width="110" height="40" as="geometry" />
        </mxCell>
        <mxCell id="hXMPYN5qLVU3_iHfUdJ2-396" value="" style="endArrow=none;html=1;rounded=0;entryX=0.466;entryY=1.017;entryDx=0;entryDy=0;entryPerimeter=0;" edge="1" parent="1" target="hXMPYN5qLVU3_iHfUdJ2-395">
          <mxGeometry width="50" height="50" relative="1" as="geometry">
            <mxPoint x="271" y="5640" as="sourcePoint" />
            <mxPoint x="370" y="5640" as="targetPoint" />
          </mxGeometry>
        </mxCell>
        <mxCell id="hXMPYN5qLVU3_iHfUdJ2-397" value="" style="endArrow=none;html=1;rounded=0;entryX=0.466;entryY=1.017;entryDx=0;entryDy=0;entryPerimeter=0;" edge="1" parent="1">
          <mxGeometry width="50" height="50" relative="1" as="geometry">
            <mxPoint x="439.7" y="5639" as="sourcePoint" />
            <mxPoint x="439.7" y="5590" as="targetPoint" />
          </mxGeometry>
        </mxCell>
        <mxCell id="hXMPYN5qLVU3_iHfUdJ2-398" value="" style="endArrow=none;html=1;rounded=0;" edge="1" parent="1">
          <mxGeometry width="50" height="50" relative="1" as="geometry">
            <mxPoint x="270" y="5640" as="sourcePoint" />
            <mxPoint x="320" y="5640" as="targetPoint" />
          </mxGeometry>
        </mxCell>
        <mxCell id="hXMPYN5qLVU3_iHfUdJ2-399" value="" style="endArrow=none;html=1;rounded=0;" edge="1" parent="1">
          <mxGeometry width="50" height="50" relative="1" as="geometry">
            <mxPoint x="389.75" y="5640" as="sourcePoint" />
            <mxPoint x="439.75" y="5640" as="targetPoint" />
          </mxGeometry>
        </mxCell>
        <mxCell id="hXMPYN5qLVU3_iHfUdJ2-400" value="Go to airport" style="rounded=0;whiteSpace=wrap;html=1;" vertex="1" parent="1">
          <mxGeometry x="303" y="5620" width="110" height="40" as="geometry" />
        </mxCell>
        <mxCell id="hXMPYN5qLVU3_iHfUdJ2-401" value="" style="endArrow=none;html=1;rounded=0;entryX=0.5;entryY=1;entryDx=0;entryDy=0;" edge="1" parent="1" target="hXMPYN5qLVU3_iHfUdJ2-400">
          <mxGeometry width="50" height="50" relative="1" as="geometry">
            <mxPoint x="358" y="5700" as="sourcePoint" />
            <mxPoint x="370" y="5640" as="targetPoint" />
          </mxGeometry>
        </mxCell>
        <mxCell id="hXMPYN5qLVU3_iHfUdJ2-402" value="Flight going to Manila" style="rounded=0;whiteSpace=wrap;html=1;" vertex="1" parent="1">
          <mxGeometry x="303" y="5700" width="110" height="40" as="geometry" />
        </mxCell>
        <mxCell id="hXMPYN5qLVU3_iHfUdJ2-403" value="" style="endArrow=none;html=1;rounded=0;entryX=0.5;entryY=1;entryDx=0;entryDy=0;" edge="1" parent="1">
          <mxGeometry width="50" height="50" relative="1" as="geometry">
            <mxPoint x="356.7" y="5780" as="sourcePoint" />
            <mxPoint x="356.7" y="5740" as="targetPoint" />
          </mxGeometry>
        </mxCell>
        <mxCell id="hXMPYN5qLVU3_iHfUdJ2-404" value="Arrived at Manila" style="rounded=1;whiteSpace=wrap;html=1;" vertex="1" parent="1">
          <mxGeometry x="296.5" y="5770" width="113.5" height="50" as="geometry" />
        </mxCell>
      </root>
    </mxGraphModel>
  </diagram>
</mxfile>
